<svg xmlns="http://www.w3.org/2000/svg" viewBox="0 0 673.92 407.02"><defs><style>.cls-1{fill:#f5f5f5;}.cls-2{fill:#e0e0e0;}.cls-3{fill:#ebebeb;}.cls-4{fill:#fff;}.cls-5{fill:#fafafa;}.cls-6{fill:#e8505b;}.cls-7{opacity:0.3;}.cls-8{fill:#263238;}.cls-9{fill:#ffbe9d;}.cls-10{fill:#455a64;}.cls-11{fill:#eb996e;}.cls-12{fill:#b78876;}.cls-13{fill:#aa6550;}</style></defs><g id="Layer_2" data-name="Layer 2"><g id="Background_Complete" data-name="Background Complete"><path class="cls-1" d="M582.52,403.71c-24.12-14.78-31.18-44.48-31.89-71.51-.12-4.51-.9-9.23,1-13.31s6.74-7.09,10.89-5.43c3.44,1.37,5.13,5.17,7.19,8.28a26.37,26.37,0,0,0,11.18,9.45c3,1.31,6.56,2,9.29.28,3.76-2.38,3.89-7.77,3.59-12.25q-.82-12.53-1.66-25c-.3-4.48-.59-9.05.55-13.38s4-8.47,8.16-9.93,9.61.69,10.77,5c.49,1.8.23,3.72.47,5.57s1.22,3.86,3,4.27,3.54-1,4.8-2.35c4.35-4.8,7.13-10.82,9.71-16.79s5.07-12.07,9-17.26,9.47-9.45,15.86-10.2,13.47,2.8,15.47,9-1.29,12.85-5,18.2a100.34,100.34,0,0,1-19.62,21.1c-1.36,1.09-2.82,2.26-3.26,4-.79,3,2.21,5.84,5.22,6.64,3.41.91,7,.34,10.53.54s7.39,1.52,8.91,4.74c2.11,4.47-1.43,9.5-5,12.87a85.83,85.83,0,0,1-24.47,16.16c-3.22,1.4-6.63,2.67-9.14,5.15s-3.88,6.59-2.09,9.65,6,3.83,9.4,3,6.38-2.91,9.6-4.35c6-2.7,14-2.75,18.25,2.33,2.8,3.34,3.33,8.2,2.27,12.44s-3.5,8-6.13,11.48c-9.16,12.17-21.23,22.26-35.21,28.07s-27.13,8-41.64,3.62"/><path class="cls-2" d="M588.47,386.37a403.32,403.32,0,0,1,13.32-44.17q2.07-5.77,4.09-11.4c1.35-3.74,2.69-7.45,4.22-11a201.14,201.14,0,0,1,10-19.87c3.48-6.17,7-11.89,10.34-17.22s6.57-10.22,9.69-14.57a159.91,159.91,0,0,1,16.24-19.38c2.09-2.13,3.76-3.73,4.91-4.8l1.32-1.2a3.11,3.11,0,0,1,.47-.39,3.62,3.62,0,0,1-.41.45c-.32.31-.73.73-1.26,1.27-1.11,1.1-2.75,2.74-4.8,4.9a168.7,168.7,0,0,0-16,19.5c-3.08,4.35-6.26,9.26-9.58,14.59s-6.81,11.07-10.26,17.23a204.31,204.31,0,0,0-9.9,19.81c-1.52,3.53-2.84,7.21-4.19,11l-4.08,11.39a410.63,410.63,0,0,0-13.36,44.07"/><path class="cls-2" d="M610.34,319.76a8.91,8.91,0,0,1-.56-1.88c-.31-1.23-.7-3-1.15-5.22-.9-4.43-1.94-10.57-3.06-17.36s-2.24-12.9-3.2-17.3c-.48-2.2-.89-4-1.18-5.2a9.27,9.27,0,0,1-.37-1.93,9,9,0,0,1,.68,1.85c.39,1.2.88,3,1.43,5.15,1.12,4.38,2.34,10.5,3.46,17.29s2.07,12.76,2.82,17.39c.35,2.09.65,3.85.89,5.26A10.18,10.18,0,0,1,610.34,319.76Z"/><path class="cls-2" d="M667.28,305.52a12.73,12.73,0,0,1-2.28.42c-1.47.22-3.6.52-6.22,1-5.24.89-12.44,2.37-20.3,4.35s-14.91,4.1-20,5.77c-2.53.82-4.56,1.54-6,2a12.4,12.4,0,0,1-2.21.69,12.19,12.19,0,0,1,2.1-1c1.37-.58,3.38-1.39,5.89-2.28,5-1.82,12.06-4,19.95-6a204.33,204.33,0,0,1,20.41-4.11c2.64-.4,4.78-.62,6.27-.74A12.33,12.33,0,0,1,667.28,305.52Z"/><path class="cls-2" d="M589.11,385.27a3.67,3.67,0,0,1-.44-.68l-1.11-2c-.95-1.76-2.27-4.35-3.86-7.57-3.17-6.43-7.28-15.44-11.68-25.46S563.6,330.48,560.56,324l-3.62-7.67-1-2.1a2.58,2.58,0,0,1-.29-.75,3.41,3.41,0,0,1,.43.68l1.11,2c1,1.76,2.28,4.35,3.87,7.56,3.17,6.43,7.28,15.45,11.68,25.47s8.42,19.06,11.46,25.55l3.62,7.67,1,2.09A2.68,2.68,0,0,1,589.11,385.27Z"/><path class="cls-2" d="M664.15,356a3.07,3.07,0,0,1-.74.36l-2.18.88-8,3.15c-6.79,2.66-16.11,6.44-26.41,10.64s-19.68,7.89-26.52,10.42c-3.42,1.26-6.2,2.25-8.13,2.9l-2.23.73a2.77,2.77,0,0,1-.8.2,3.07,3.07,0,0,1,.74-.36L592,384l8-3.15c6.79-2.66,16.12-6.44,26.42-10.64s19.67-7.9,26.51-10.42c3.42-1.26,6.2-2.25,8.13-2.9l2.23-.73A2.85,2.85,0,0,1,664.15,356Z"/><path class="cls-1" d="M594.5,96.64c-4.12,10.3-10.7,27-13.73,34.6a4.4,4.4,0,0,0,2.47,5.71l28.14,11.2a4.39,4.39,0,0,0,5.71-2.46l13.65-34.27a9.75,9.75,0,0,0-5.46-12.69h0l2-5-18.42-7.34L607,91.11l-.07,0A9.76,9.76,0,0,0,594.5,96.64Z"/><polygon class="cls-2" points="608.61 86.99 607.7 89.28 625.86 97.27 627.04 94.33 608.61 86.99"/><path class="cls-3" d="M609.85,82.65h18.49a3,3,0,0,1,3,3v4.92a1.93,1.93,0,0,1-1.93,1.93H608.79a1.93,1.93,0,0,1-1.93-1.93V85.64a3,3,0,0,1,3-3Z" transform="translate(76.34 -222.86) rotate(21.72)"/><path class="cls-2" d="M608.8,88.81a23.82,23.82,0,0,1,1.57-4.65,24.42,24.42,0,0,1,2.06-4.46,23.36,23.36,0,0,1-1.57,4.65A22.59,22.59,0,0,1,608.8,88.81Z"/><path class="cls-2" d="M611.23,89.78a23.36,23.36,0,0,1,1.57-4.65,22.59,22.59,0,0,1,2.06-4.46,23.36,23.36,0,0,1-1.57,4.65A22.59,22.59,0,0,1,611.23,89.78Z"/><path class="cls-2" d="M613.66,90.75a23.36,23.36,0,0,1,1.57-4.65,22.59,22.59,0,0,1,2.06-4.46,23.82,23.82,0,0,1-1.57,4.65A24.42,24.42,0,0,1,613.66,90.75Z"/><path class="cls-2" d="M616.09,91.71a23,23,0,0,1,1.57-4.65,22.32,22.32,0,0,1,2.06-4.45,23.49,23.49,0,0,1-1.58,4.65A23.35,23.35,0,0,1,616.09,91.71Z"/><path class="cls-2" d="M618.52,92.68A22.82,22.82,0,0,1,620.09,88a24,24,0,0,1,2-4.46,22.61,22.61,0,0,1-1.57,4.65A23.64,23.64,0,0,1,618.52,92.68Z"/><path class="cls-2" d="M620.94,93.65A23,23,0,0,1,622.52,89a23.64,23.64,0,0,1,2.05-4.46A23,23,0,0,1,623,89.19,23,23,0,0,1,620.94,93.65Z"/><path class="cls-2" d="M623.37,94.61A23.82,23.82,0,0,1,624.94,90,23.72,23.72,0,0,1,627,85.51a23.82,23.82,0,0,1-1.57,4.65A22.32,22.32,0,0,1,623.37,94.61Z"/><path class="cls-2" d="M625.8,95.58a23.82,23.82,0,0,1,1.57-4.65,23,23,0,0,1,2.06-4.46,23.36,23.36,0,0,1-1.57,4.65A23.29,23.29,0,0,1,625.8,95.58Z"/><rect class="cls-3" x="593.18" y="108.25" width="28.42" height="18.8" rx="1.48" transform="translate(86.64 -216.39) rotate(21.72)"/><path class="cls-2" d="M615.82,129.74a2.5,2.5,0,0,1,.1-.31l.3-.82c.29-.75.68-1.78,1.17-3.08l4.28-11,.11.27-23.16-9.17c-.07,0,.64-.28.34-.14h0l0,0,0,.06,0,.13-.1.25-.2.5-.4,1-.79,2c-.52,1.31-1,2.61-1.55,3.87-1,2.54-2,5-2.92,7.3l-.13-.31L609.33,127l4.77,2,1.27.54a2,2,0,0,1,.45.21l-.42-.14-1.25-.47-4.76-1.83-16.8-6.56-.22-.09.09-.22c.92-2.32,1.89-4.77,2.89-7.31l1.54-3.87c.26-.65.52-1.32.79-2l.39-1,.21-.51.1-.25,0-.12,0-.07v0h0c-.3.13.42-.18.35-.14l23.12,9.26.19.08-.08.19c-1.88,4.6-3.43,8.39-4.52,11.07l-1.26,3-.33.77A1,1,0,0,1,615.82,129.74Z"/><path class="cls-2" d="M616.32,118.06a70.07,70.07,0,0,1-8-2.89,66.87,66.87,0,0,1-7.77-3.38,70.58,70.58,0,0,1,8,2.89A66.2,66.2,0,0,1,616.32,118.06Z"/><path class="cls-2" d="M615.26,120.73a69.79,69.79,0,0,1-8-2.89,71.17,71.17,0,0,1-7.77-3.37,66.83,66.83,0,0,1,8,2.89A67.94,67.94,0,0,1,615.26,120.73Z"/><path class="cls-2" d="M614.24,123.3a69,69,0,0,1-8-2.89,66.87,66.87,0,0,1-7.77-3.38,69.79,69.79,0,0,1,8,2.89A67.83,67.83,0,0,1,614.24,123.3Z"/><path class="cls-2" d="M624.29,98.15A83.76,83.76,0,0,1,615.62,95a84.43,84.43,0,0,1-8.49-3.66,83.4,83.4,0,0,1,8.68,3.18A77.46,77.46,0,0,1,624.29,98.15Z"/><path class="cls-4" d="M583.08,129.86a12.6,12.6,0,0,1,.56-1.66c.43-1.13,1-2.63,1.7-4.44,1.45-3.75,3.49-8.92,5.78-14.61,1.15-2.84,2.24-5.54,3.25-8A17.16,17.16,0,0,1,598,95.05a7.81,7.81,0,0,1,4.25-2.17,5.6,5.6,0,0,1,1.31,0c.29.05.45.09.44.11a10,10,0,0,0-1.72.1,7.64,7.64,0,0,0-4,2.23,17.23,17.23,0,0,0-3.47,6l-3.21,8c-2.28,5.69-4.38,10.83-5.92,14.54l-1.85,4.39A9.82,9.82,0,0,1,583.08,129.86Z"/><path class="cls-4" d="M614.7,148a6.69,6.69,0,0,1-1.1-.9c-.34-.3-.76-.67-1.28-1.07s-1.06-.88-1.73-1.35a47,47,0,0,0-4.77-3.16,48.13,48.13,0,0,0-18.59-6.15c-.81-.11-1.55-.14-2.19-.2s-1.21-.09-1.66-.1a7.32,7.32,0,0,1-1.42-.11,7.6,7.6,0,0,1,1.42-.09,15.69,15.69,0,0,1,1.67,0c.65,0,1.4,0,2.21.13a42.41,42.41,0,0,1,5.71.88,44.61,44.61,0,0,1,13.1,5.22,42,42,0,0,1,4.75,3.28c.65.49,1.2,1,1.69,1.42s.9.82,1.22,1.15A7.63,7.63,0,0,1,614.7,148Z"/><rect class="cls-2" x="31.17" y="152.81" width="90.75" height="124.67" rx="2.41" transform="translate(-85.74 54.49) rotate(-25.7)"/><rect class="cls-5" x="35.52" y="155.63" width="80.62" height="116.04" transform="translate(-85.16 54.03) rotate(-25.7)"/><path class="cls-3" d="M66.19,155.84a9.9,9.9,0,0,0-10.33-1.08l-2.23-4.41a6.78,6.78,0,0,0-9.05-3.18h0a6.78,6.78,0,0,0-3.17,9.06l2.23,4.64-1.55.78a9.87,9.87,0,0,0-5.45,8.7l0,2.3,31.63-15.23Zm-16.88.72A3.65,3.65,0,1,1,51,151.69,3.65,3.65,0,0,1,49.31,156.56Z"/><path class="cls-2" d="M48.39,180.71c.07.13-4.29,2.35-9.73,5s-9.9,4.64-10,4.51,4.29-2.36,9.73-5S48.33,180.58,48.39,180.71Z"/><path class="cls-2" d="M39.79,188.94a26.72,26.72,0,0,1-4.63,2.52,27.35,27.35,0,0,1-4.86,2A26.26,26.26,0,0,1,34.93,191,27,27,0,0,1,39.79,188.94Z"/><path class="cls-2" d="M90.52,175.92c.06.13-12.16,6.14-27.29,13.43s-27.47,13.09-27.53,13,12.16-6.14,27.3-13.43S90.46,175.79,90.52,175.92Z"/><path class="cls-2" d="M93,181.15c.06.13-12.16,6.14-27.3,13.43s-27.46,13.09-27.52,13,12.15-6.15,27.3-13.43S93,181,93,181.15Z"/><path class="cls-2" d="M95.55,186.38c.07.13-12.16,6.14-27.29,13.42s-27.46,13.09-27.53,13,12.16-6.14,27.3-13.43S95.49,186.25,95.55,186.38Z"/><path class="cls-2" d="M98.07,191.6c.06.13-12.16,6.15-27.3,13.43s-27.46,13.09-27.52,13,12.16-6.14,27.3-13.43S98,191.47,98.07,191.6Z"/><path class="cls-2" d="M100.59,196.83c.06.13-12.16,6.14-27.3,13.43s-27.46,13.09-27.52,13,12.15-6.14,27.29-13.43S100.52,196.7,100.59,196.83Z"/><path class="cls-2" d="M103.1,202.06c.06.13-12.16,6.14-27.29,13.43s-27.47,13.08-27.53,13S60.44,222.3,75.58,215,103,201.93,103.1,202.06Z"/><path class="cls-2" d="M78,220a5.71,5.71,0,0,1-1,.61L74,222.06c-2.46,1.24-5.88,2.92-9.66,4.74s-7.22,3.44-9.73,4.59l-3,1.34a5.3,5.3,0,0,1-1.12.43,5.47,5.47,0,0,1,1-.61l2.9-1.49c2.46-1.24,5.88-2.91,9.66-4.73s7.23-3.45,9.73-4.6l3-1.34A5,5,0,0,1,78,220Z"/><path class="cls-2" d="M86.61,161.73a22.73,22.73,0,0,1-4.28,2.34,22.79,22.79,0,0,1-4.5,1.88,23.08,23.08,0,0,1,4.28-2.35A23.09,23.09,0,0,1,86.61,161.73Z"/><path class="cls-2" d="M71,237.35A58.76,58.76,0,0,1,64,241a59.64,59.64,0,0,1-7.23,3.2,58.76,58.76,0,0,1,7-3.66A59.64,59.64,0,0,1,71,237.35Z"/><path class="cls-2" d="M73.74,241.87a59.84,59.84,0,0,1-7.12,3.72,63.46,63.46,0,0,1-7.35,3.25,63.78,63.78,0,0,1,7.12-3.72A63.46,63.46,0,0,1,73.74,241.87Z"/><path class="cls-2" d="M111.93,216.77a14.09,14.09,0,0,1-3.32,1.89,14.41,14.41,0,0,1-3.56,1.42,14.15,14.15,0,0,1,3.33-1.89A14,14,0,0,1,111.93,216.77Z"/><path class="cls-2" d="M114.23,220.92a14.15,14.15,0,0,1-3.33,1.89,14.24,14.24,0,0,1-3.55,1.43,13.9,13.9,0,0,1,3.32-1.9A14.41,14.41,0,0,1,114.23,220.92Z"/><path class="cls-2" d="M69.5,250.05a13.62,13.62,0,0,1-3.21,1.84,13.24,13.24,0,0,1-3.44,1.36,13.4,13.4,0,0,1,3.21-1.83A13.21,13.21,0,0,1,69.5,250.05Z"/><path class="cls-2" d="M116.86,225.79a7.54,7.54,0,0,1-2.37,1.44,7.6,7.6,0,0,1-2.61,1,7.54,7.54,0,0,1,2.38-1.43A7.49,7.49,0,0,1,116.86,225.79Z"/><path class="cls-2" d="M67.83,264.72a1.44,1.44,0,0,1,.28-.22l.84-.56,3.23-2.07,11.61-7.29.23-.14.1.25a6.59,6.59,0,0,1,.13,4.41A5.37,5.37,0,0,1,76.1,262a4.64,4.64,0,0,1-1.65-4.87,4.27,4.27,0,0,1,1-1.81,2.58,2.58,0,0,1,.38-.36,2,2,0,0,1,.45-.31.76.76,0,0,1,.7,0,1.28,1.28,0,0,1,.4.46,8.76,8.76,0,0,1,1,3.7,8.67,8.67,0,0,1-.57,3.66,5.53,5.53,0,0,1-2.15,2.85,3.19,3.19,0,0,1-3.38-.08,4.82,4.82,0,0,1-2-2.51,11.65,11.65,0,0,1,0-5.64l.06-.38.26.29a7.83,7.83,0,0,1,1.91,4.31,8.43,8.43,0,0,1-.34,3.54,7.49,7.49,0,0,1-1,2c-.16.2-.29.35-.38.45s-.13.14-.14.14A9.48,9.48,0,0,0,72,264.81a8.51,8.51,0,0,0,.24-3.45,7.55,7.55,0,0,0-1.89-4.09l.32-.1a11.25,11.25,0,0,0,0,5.44,4.4,4.4,0,0,0,1.83,2.26,2.74,2.74,0,0,0,2.89.06,5.15,5.15,0,0,0,1.94-2.62,8.54,8.54,0,0,0-.44-6.93.58.58,0,0,0-.21-.26c-.06,0-.11,0-.22,0a2.68,2.68,0,0,0-.65.55,3.7,3.7,0,0,0-.84,1.59,4.13,4.13,0,0,0,1.46,4.32,4.8,4.8,0,0,0,4.46.51A4.87,4.87,0,0,0,83.79,259a6.09,6.09,0,0,0-.09-4.09l.33.1-11.71,7.13-3.3,2-.87.5A1.21,1.21,0,0,1,67.83,264.72Z"/><path class="cls-2" d="M119.75,239.51a3,3,0,0,1-.16.93,4,4,0,0,1-.46,1.07,2.23,2.23,0,0,1-1.25,1,1.62,1.62,0,0,1-1,0,2,2,0,0,1-.83-.65,19.24,19.24,0,0,1-1.13-1.91l-2.48-4.53.45-.11c-.08,2.3-.16,4.8-.26,7.42,0,.62,0,1.24-.07,1.85l0,1-.45-.93c-1.37-2.81-2.64-5.43-3.75-7.72l.41,0a26.65,26.65,0,0,0-1,7c0,1.7.11,2.68.06,2.68a2.08,2.08,0,0,1-.15-.69c-.06-.46-.14-1.13-.17-2a24.35,24.35,0,0,1,.78-7.09l.15-.58.27.53,3.82,7.69-.5.11c0-.61.05-1.23.07-1.85.11-2.62.21-5.12.3-7.42l0-.9.41.8c.88,1.65,1.69,3.18,2.42,4.57a20.8,20.8,0,0,0,1,1.88,1.33,1.33,0,0,0,1.45.61,2.55,2.55,0,0,0,1.63-1.77A6.74,6.74,0,0,1,119.75,239.51Z"/><path class="cls-2" d="M119.65,235.76c.08.12-4.05,3.07-9.22,6.58s-9.43,6.28-9.51,6.16,4-3.07,9.22-6.59S119.57,235.64,119.65,235.76Z"/><path class="cls-2" d="M124.72,236.64a80.85,80.85,0,0,1-6.76,6.15,79.62,79.62,0,0,1-7.1,5.76,79.85,79.85,0,0,1,6.76-6.16A80.5,80.5,0,0,1,124.72,236.64Z"/><path class="cls-1" d="M161.3,21.2h-4.21L147.91,8.4V0s-6.51-.4-5.74,10.6-.06,8.2-.06,8.2-13.81.05-15,1.25c-.84.88-1.21,14.59-1.36,22a8.07,8.07,0,0,0,5.71,8.11,5.87,5.87,0,0,0,1.49.2c3.44,0,21-2.8,21-2.8h7.27Z"/><polygon class="cls-1" points="173.35 18.89 170.76 47.68 163.55 47.68 163.55 19.47 173.35 18.89"/></g><g id="Icons"><path class="cls-6" d="M485.92,23.75C484.84,15,477.43,6.83,468.6,6.82c-5.21,0-10.16,2.73-13.72,6.53a36.6,36.6,0,0,0-3.49,4.13,35.65,35.65,0,0,0-2.6-4.73c-2.74-4.44-7.06-8.08-12.17-9.1C428,1.91,419.1,8.46,416.31,16.83s-.47,17.77,4.12,25.31,12.48,17.39,27,22.29c10-1.29,23.46-10.19,29.44-16.68S487,32.51,485.92,23.75Z"/><path class="cls-5" d="M482.74,39.48a1.07,1.07,0,0,1-.29,0l-.85,0-3.27-.27-12-1.1.22-.13-5,13-.3.79-.2-.82c-1.53-6.33-3.23-13.42-5-20.88-.55-2.32-1.1-4.59-1.63-6.81l.51.1-9.16,12.59-.09.12h-.15l-21.08-2.2-6-.67-1.58-.2a2.56,2.56,0,0,1-.54-.09,2.3,2.3,0,0,1,.55,0l1.58.12,6,.52,21.1,2-.23.11L454.44,23l.36-.5.14.6c.54,2.23,1.08,4.5,1.64,6.81l5,20.9-.5,0c1.89-4.83,3.62-9.23,5.1-13l0-.15.16,0,12,1.29,3.25.38.85.11A1,1,0,0,1,482.74,39.48Z"/><rect class="cls-6" x="262.2" y="78.43" width="6.6" height="29.59"/><rect class="cls-6" x="262.2" y="78.43" width="6.6" height="29.59" transform="translate(172.27 358.72) rotate(-90)"/><path class="cls-6" d="M290.07,93.29a3,3,0,0,1-.05-.4c0-.28,0-.67-.08-1.16q0-.39-.06-.87c0-.31-.1-.65-.16-1a17.14,17.14,0,0,0-.52-2.54,23.54,23.54,0,0,0-2.74-6.53,24.47,24.47,0,0,0-29.37-10.42,26.47,26.47,0,0,0-3.19,1.41,24.44,24.44,0,0,0-3,1.92A27.89,27.89,0,0,0,248.14,76a27.27,27.27,0,0,0-2.39,2.83,23.72,23.72,0,0,0-3.49,6.72,24.16,24.16,0,0,0,0,15.4,23.78,23.78,0,0,0,3.49,6.73,28.36,28.36,0,0,0,2.39,2.83,29.29,29.29,0,0,0,2.77,2.36,25.69,25.69,0,0,0,3,1.92,24.91,24.91,0,0,0,3.19,1.4,24.51,24.51,0,0,0,29.37-10.42,23.37,23.37,0,0,0,2.74-6.52,17.67,17.67,0,0,0,.52-2.54c.06-.37.13-.71.16-1s0-.6.06-.86c0-.49.06-.88.08-1.17a3.35,3.35,0,0,1,.05-.4,2.47,2.47,0,0,1,0,.4c0,.29,0,.68,0,1.18l0,.87c0,.31-.09.66-.13,1a18.84,18.84,0,0,1-.48,2.57,23.31,23.31,0,0,1-2.69,6.62A24.85,24.85,0,0,1,270,117.73a25.35,25.35,0,0,1-16.33-2.47,26.28,26.28,0,0,1-3.06-2,30.44,30.44,0,0,1-2.83-2.4,28.23,28.23,0,0,1-2.44-2.89,24,24,0,0,1-3.57-6.86,24.62,24.62,0,0,1,0-15.73,24.13,24.13,0,0,1,3.57-6.87,27.08,27.08,0,0,1,2.44-2.88,29,29,0,0,1,2.83-2.4,27.77,27.77,0,0,1,3.06-2,28.08,28.08,0,0,1,3.25-1.42A25.09,25.09,0,0,1,270,68.85a24.85,24.85,0,0,1,16.71,11.77,23.65,23.65,0,0,1,2.69,6.63,18.45,18.45,0,0,1,.48,2.56c0,.38.11.72.13,1l0,.87c0,.5,0,.88,0,1.17A2.38,2.38,0,0,1,290.07,93.29Z"/></g><g id="Character_3" data-name="Character 3"><path class="cls-6" d="M594.61,297.08s29.26-7,30.23-8.21l-24.07-62a46.49,46.49,0,0,0-16.68-21.62,46,46,0,0,0-11.39-5.74,79.53,79.53,0,0,0-28.42-4.39L503.65,193a80.63,80.63,0,0,0-32.06,8.87A64.69,64.69,0,0,0,441.5,235l-18.22,45.52,46,9.61,1.75,48.9-6.93,67.47H591l-.88-106.95h0Z"/><g class="cls-7"><path class="cls-4" d="M619.83,280.78c0,.13-7.55,2.61-17,5.53s-17.07,5.17-17.11,5,7.54-2.61,17-5.53S619.79,280.64,619.83,280.78Z"/></g><path class="cls-8" d="M487.06,237.2a8.3,8.3,0,0,1-.78-1.07c-.46-.71-1.17-1.71-2.09-2.91a51.79,51.79,0,0,0-3.45-4,56.11,56.11,0,0,0-4.76-4.4,53.63,53.63,0,0,0-5.31-3.73,51.44,51.44,0,0,0-4.67-2.52c-1.36-.64-2.49-1.13-3.28-1.43a6.44,6.44,0,0,1-1.21-.54,6.6,6.6,0,0,1,1.28.35,33,33,0,0,1,3.36,1.29,43.51,43.51,0,0,1,4.77,2.44,45.74,45.74,0,0,1,10.17,8.21,44.63,44.63,0,0,1,3.39,4.14,33,33,0,0,1,2,3A5.82,5.82,0,0,1,487.06,237.2Z"/><path class="cls-8" d="M481.07,252c.14,0-1.27,14.95-3.17,33.35s-3.54,33.3-3.68,33.29,1.27-14.94,3.17-33.35S480.93,252,481.07,252Z"/><path class="cls-8" d="M581,224.32a27.67,27.67,0,0,1-.65-3,57.25,57.25,0,0,0-2-7.16,55.13,55.13,0,0,0-3-6.81,26.91,26.91,0,0,1-1.42-2.76s.22.22.53.66.73,1.09,1.22,1.92A42.5,42.5,0,0,1,578.8,214a41.33,41.33,0,0,1,1.89,7.27c.15,1,.24,1.72.28,2.25A2.47,2.47,0,0,1,581,224.32Z"/><path class="cls-8" d="M583.52,276.53a8.88,8.88,0,0,1-.24-1.47c-.13-.95-.28-2.32-.45-4-.33-3.4-.68-8.11-.86-13.33s-.17-9.94-.08-13.36c.05-1.71.1-3.09.16-4.05a7.53,7.53,0,0,1,.15-1.48,9.73,9.73,0,0,1,.06,1.49v4c0,3.42,0,8.14.23,13.34s.47,9.92.71,13.32c.11,1.63.2,3,.28,4A7.7,7.7,0,0,1,583.52,276.53Z"/><path class="cls-4" d="M522.08,267.8a208.48,208.48,0,0,1-32-.6v4.16h32Z"/><g class="cls-7"><path class="cls-4" d="M553.92,198.65a5.27,5.27,0,0,1,.12.63c.07.45.16,1.07.28,1.85.2,1.61.48,4,.71,7,.48,6,.9,14.55,1,24.63v.39l-.35-.17c-6.38-3.1-13.53-6.48-21-10.2l-36.37-18.2-11-5.57-3-1.54-.76-.41a1.34,1.34,0,0,1-.26-.16l.28.11.79.37,3,1.45,11.06,5.42L535,222.3c7.44,3.72,14.58,7.11,21,10.24l-.34.22c-.11-10.07-.46-18.61-.86-24.62-.18-3-.42-5.37-.57-7-.09-.78-.16-1.39-.21-1.85A3.08,3.08,0,0,1,553.92,198.65Z"/></g><g class="cls-7"><path class="cls-4" d="M477.51,285A1.81,1.81,0,0,1,477,285l-1.49-.36L470,283.2c-4.62-1.18-11-2.8-18.06-4.51s-13.48-3.18-18.13-4.24l-5.5-1.26-1.49-.37a1.9,1.9,0,0,1-.51-.16,1.78,1.78,0,0,1,.53.06l1.51.27c1.31.24,3.2.62,5.54,1.1,4.67,1,11.1,2.39,18.17,4.1s13.44,3.38,18,4.66c2.29.63,4.15,1.16,5.42,1.55l1.47.45A2,2,0,0,1,477.51,285Z"/></g><path class="cls-8" d="M548.33,191.08c0-.14,2.75,1.3,5.4,5.22a48.86,48.86,0,0,1,6.43,17,70.22,70.22,0,0,1,1.17,10c0,1.54.07,3,0,4.37s-.09,2.64-.21,3.8-.24,2.18-.34,3.11-.28,1.7-.39,2.34a7.72,7.72,0,0,1-.47,2,6.81,6.81,0,0,1,.07-2l.21-2.34c.06-.92.12-2,.18-3.1s.05-2.41.09-3.76-.07-2.8-.12-4.32a78.14,78.14,0,0,0-1.23-9.79,53.41,53.41,0,0,0-6-16.78,23.73,23.73,0,0,0-3.33-4.24A19.34,19.34,0,0,1,548.33,191.08Z"/><path class="cls-8" d="M502.86,191.37a22.32,22.32,0,0,1-2.11,3A43,43,0,0,0,496,203.2a60.14,60.14,0,0,0-3.49,14.37c-.73,5.55-1,11.75-1.45,18.23s-.35,12.67-.36,18.31,0,10.71,0,15-.11,7.73-.23,10.11a17.28,17.28,0,0,1-.37,3.71,17.61,17.61,0,0,1-.24-3.71c-.07-2.43-.15-5.87-.26-10.1s-.25-9.34-.33-15-.1-11.87.24-18.4.76-12.71,1.58-18.35a57.16,57.16,0,0,1,3.9-14.59,37,37,0,0,1,5.25-8.74A13.65,13.65,0,0,1,502.86,191.37Z"/><path class="cls-8" d="M570.1,275a19.17,19.17,0,0,1-.2-3.31c-.06-2.12-.11-5.2-.15-9,0-1.91,0-4-.06-6.22s0-4.65-.13-7.1a11.75,11.75,0,0,0-2.55-7,9.63,9.63,0,0,0-7-3.33,11,11,0,0,0-7.37,2.86,12.62,12.62,0,0,0-3.72,6.49c-.62,2.38-.88,4.77-1.25,7s-.68,4.26-1,6.14c-.6,3.76-1.11,6.79-1.48,8.89a20.46,20.46,0,0,1-.68,3.24,18.64,18.64,0,0,1,.28-3.3c.25-2.11.64-5.17,1.15-8.93.26-1.89.55-3.95.85-6.17s.56-4.58,1.18-7.08a13.5,13.5,0,0,1,4-7A12,12,0,0,1,560,238a10.6,10.6,0,0,1,7.8,3.71,12.57,12.57,0,0,1,2.74,7.57c.15,2.57,0,4.94,0,7.18s0,4.31-.08,6.22c-.05,3.8-.11,6.88-.18,9A20.4,20.4,0,0,1,570.1,275Z"/><path class="cls-8" d="M560.45,229.24c-.33,3.5-1.45,7.43-3.88,10a13.92,13.92,0,0,1,6.45.12c-1.51-3-1.76-6.7-1.72-10.1"/><path class="cls-8" d="M570.13,252c-.19,0-.3-1.68-1.58-4a12.41,12.41,0,0,0-2.91-3.47,10.81,10.81,0,0,0-4.92-2.35,10.61,10.61,0,0,0-5.42.55,11.83,11.83,0,0,0-3.87,2.34c-1.94,1.76-2.58,3.35-2.75,3.26s.3-1.77,2.24-3.79a11.52,11.52,0,0,1,4-2.71,10.63,10.63,0,0,1,11.3,2,11.91,11.91,0,0,1,2.94,3.86C570.39,250.22,570.22,252,570.13,252Z"/><path class="cls-9" d="M596.89,365.28c6,0,11.28-4.3,14.08-9.55s3.52-11.35,3.79-17.3A140.53,140.53,0,0,0,609,291.72l-26.1,4.56,7.11,70.29Z"/><polygon class="cls-8" points="491.33 374.03 576.31 370.93 596.92 271.36 507.41 276.33 491.33 374.03"/><path class="cls-10" d="M535.07,274.62l1.28-2.54,6.78-.5s1.73-4.45,11.42-4.9c8.68-.41,9,4,9,4h4.68v2.13Z"/><path class="cls-9" d="M582.45,341.94l6.44-1.88a7.86,7.86,0,0,1,3.73-.16h0a7.86,7.86,0,0,1,4,2.11c2.13,2.1,5.57,5.57,6.06,6.6.72,1.52.72,4.14,0,5.1s1.58,5.92,1.29,7.57a10.31,10.31,0,0,1-1.29,4c-.58.69,0,3-1.44,4.82a23.54,23.54,0,0,1-2.73,2.89s-17.7.83-19.42,0-4.75-4-4.75-4-1.58-2.9.86-3.17L565.13,362a2.39,2.39,0,0,1-1.46-3,1.69,1.69,0,0,1,.89-1s-4.52-1.43-5.57-1.89c-2.09-.93-2.88-5.79,1.45-5.17,2.28.33,5.37,1,5.37,1s-1.65-2.69.66-4.28c1.4-1,7.7.21,7.7.21l8.28-5.91Z"/><path class="cls-11" d="M584.69,368.5a15,15,0,0,1-5.23-.79,12.87,12.87,0,0,1-4.82-2.17c.07-.13,2.18.91,5,1.67S584.71,368.35,584.69,368.5Z"/><path class="cls-11" d="M580.85,362.21a136.42,136.42,0,0,1-16.3-4.16,68.26,68.26,0,0,1,8.21,1.83A67,67,0,0,1,580.85,362.21Z"/><path class="cls-11" d="M582.94,356a79.6,79.6,0,0,1-8.84-1.8,78.76,78.76,0,0,1-8.72-2.31,79.6,79.6,0,0,1,8.84,1.8A76.93,76.93,0,0,1,582.94,356Z"/><path class="cls-11" d="M589.49,347.89a11.23,11.23,0,0,1-2.27.72l-2.5.65-1.48.36a5.35,5.35,0,0,1-1.7.16,8.59,8.59,0,0,1-1.66-.27l-1.49-.34-2.5-.6a11.42,11.42,0,0,1-2.29-.68,11,11,0,0,1,2.36.32l2.54.5a30,30,0,0,0,3.07.55,11.22,11.22,0,0,0,3-.47l2.53-.54A10.63,10.63,0,0,1,589.49,347.89Z"/><path class="cls-11" d="M590.62,351.28c.06,0,.3.18.49.65a3,3,0,0,1,.07,2,3,3,0,0,1-1.18,1.58c-.43.28-.75.32-.78.26s1-.68,1.46-2A5.49,5.49,0,0,0,590.62,351.28Z"/><path class="cls-11" d="M590.26,358.11c.12-.06.52.66.46,1.63s-.52,1.63-.64,1.56.08-.74.12-1.59S590.12,358.16,590.26,358.11Z"/><path class="cls-11" d="M590.36,365.54c.13-.05.4.43.27,1.06s-.55,1-.66.87.06-.49.15-1S590.22,365.58,590.36,365.54Z"/><path class="cls-11" d="M592.29,347.48a5.7,5.7,0,0,1-1.7-.09l-1.82-.23a7.1,7.1,0,0,0-2.17-.11,5.24,5.24,0,0,0-1.92.87c-.56.37-1,.78-1.51,1.06a2.72,2.72,0,0,1-1.63.55c0-.08.61-.26,1.43-.86a8.83,8.83,0,0,1,3.56-2.14,6.24,6.24,0,0,1,1.22,0c.41,0,.74.12,1.09.17l1.81.35A5.6,5.6,0,0,1,592.29,347.48Z"/><path class="cls-11" d="M602.51,365.61a8.26,8.26,0,0,1,.45-1.27,9.86,9.86,0,0,0,.71-3.53,9.76,9.76,0,0,0-.38-2.45c-.2-.88-.61-1.76-.83-2.81a8.79,8.79,0,0,1,.22-3.27,5.84,5.84,0,0,0-.58-3.22,15.61,15.61,0,0,0-1.84-2.85c-.69-.87-1.36-1.71-2-2.47a11.9,11.9,0,0,0-4.19-3.28,6.82,6.82,0,0,0-3.52-.53c-.84.11-1.28.34-1.3.29s.1-.08.31-.18a4.31,4.31,0,0,1,1-.31,6.56,6.56,0,0,1,3.69.39,11.85,11.85,0,0,1,4.4,3.29c.7.78,1.38,1.61,2.08,2.49a15.66,15.66,0,0,1,1.91,2.94,6.23,6.23,0,0,1,.61,3.5,9,9,0,0,0-.25,3.12c.19,1,.59,1.88.78,2.79a9.89,9.89,0,0,1,.33,2.56,9.11,9.11,0,0,1-.89,3.6A5.3,5.3,0,0,1,602.51,365.61Z"/><path class="cls-9" d="M543,316.35l-69.77,11.09,3.1-36.42-38.8-7.5-4.72,53.92L432,349.79a24.13,24.13,0,0,0,10.13,21.28h0a24.11,24.11,0,0,0,21.42,3.25l15-4.88,73.12-26"/><path class="cls-9" d="M585.24,308.84a2,2,0,0,0-2-2.33c-3.93,0-14.55.05-18.3,1.11-4.64,1.32-21.93,8.73-21.93,8.73l7.33,27.06,26.53.28s9.69-4.45,9.81-6.38a30.89,30.89,0,0,0-.24-3.61l2.93-1.57c4.36-2.77,1.56-8.07,1.56-8.07s3-1.69,3.16-4.72a4.75,4.75,0,0,0-2.34-4.48s1.2-4.28-1-5.43-6,.33-6,.33A1.54,1.54,0,0,0,585.24,308.84Z"/><path class="cls-11" d="M586.77,309.29a3.41,3.41,0,0,1-.82.28c-.53.15-1.32.33-2.29.5-1.95.34-4.66.64-7.65,1a62.23,62.23,0,0,0-7.58,1.15c-1.91.45-3,1-3,1a3.22,3.22,0,0,1,.73-.47,13,13,0,0,1,2.2-.84,45.78,45.78,0,0,1,7.61-1.32c3-.32,5.71-.55,7.65-.81S586.74,309.21,586.77,309.29Z"/><path class="cls-11" d="M591.76,314.7a6.24,6.24,0,0,1-1.87,1,30.78,30.78,0,0,1-4.83,1.41c-1.93.4-3.68.66-5,.82a7.48,7.48,0,0,1-2.07.16,64.11,64.11,0,0,1,6.92-1.49c1.91-.41,3.61-.86,4.82-1.25A13.2,13.2,0,0,1,591.76,314.7Z"/><path class="cls-11" d="M591,324.1a28.33,28.33,0,0,1-11.64,2.64c0-.15,2.64-.48,5.84-1.21S591,324,591,324.1Z"/><path class="cls-11" d="M589.38,332.13a13.76,13.76,0,0,1-4.36,1.6,14.08,14.08,0,0,1-4.62.57,731.72,731.72,0,0,0,9-2.17Z"/><path class="cls-11" d="M575.54,327.33c0,.06-.27.24-.81.29a3.08,3.08,0,0,1-3.19-2.27c-.13-.52-.06-.86,0-.86a3.8,3.8,0,0,0,4,2.84Z"/><path class="cls-11" d="M575,335.71c0,.15-1,.21-2-.61s-1-1.86-.83-1.86.41.81,1.18,1.48S575,335.57,575,335.71Z"/><path class="cls-11" d="M571.91,318.69c.06.13-.67.37-1.35-.15s-.66-1.28-.51-1.26.32.48.82.84S571.89,318.54,571.91,318.69Z"/><path class="cls-11" d="M543,316.35l.21-.11.63-.29,2.46-1.09c2.16-.94,5.29-2.29,9.26-3.91,2-.81,4.16-1.69,6.56-2.58a24.83,24.83,0,0,1,3.8-1.18,40.19,40.19,0,0,1,4.22-.53c2.9-.22,6-.32,9.18-.37l2.44,0H583a2.51,2.51,0,0,1,1.32.27,2.13,2.13,0,0,1,1.13,2.41.77.77,0,0,1-.3.35l-.3.18c-.2.11-.4.2-.6.29a9.82,9.82,0,0,1-1.26.43.24.24,0,0,1-.31-.18.26.26,0,0,1,.18-.31,27.24,27.24,0,0,1,3.3-.73,12.38,12.38,0,0,1,3.5-.13,3.17,3.17,0,0,1,1.72.75,3.11,3.11,0,0,1,.85,1.68,8.82,8.82,0,0,1-.23,3.65l-.13-.3a5,5,0,0,1,1.47,1.29,5.23,5.23,0,0,1,.76,4.74,7,7,0,0,1-3,3.62l.1-.34a8.26,8.26,0,0,1,.84,4.62,5.31,5.31,0,0,1-2.5,3.78h0l-2.93,1.56.13-.24c.07.7.14,1.39.19,2.08,0,.35,0,.69.05,1,0,.18,0,.35,0,.53a1.38,1.38,0,0,1-.21.58,6.6,6.6,0,0,1-1.51,1.44c-.54.39-1.1.75-1.65,1.09a70,70,0,0,1-6.59,3.45.15.15,0,0,1-.09,0l-19.31-.29-5.34-.12-1.4,0-.48,0a2.91,2.91,0,0,1,.48,0h6.74l19.31.12-.09,0a69.24,69.24,0,0,0,6.53-3.46c.54-.34,1.09-.69,1.61-1.08a6,6,0,0,0,1.38-1.31.89.89,0,0,0,.15-.36v-.49c0-.33,0-.67-.05-1,0-.68-.12-1.37-.2-2.06a.25.25,0,0,1,.13-.25l2.92-1.57h0a4.81,4.81,0,0,0,2.27-3.43,7.83,7.83,0,0,0-.8-4.31.28.28,0,0,1,.11-.35,6.52,6.52,0,0,0,2.8-3.34,4.66,4.66,0,0,0-.69-4.25,4.5,4.5,0,0,0-1.29-1.15.26.26,0,0,1-.13-.3,8.4,8.4,0,0,0,.22-3.41A2.66,2.66,0,0,0,591,310a2.72,2.72,0,0,0-1.44-.61,12.09,12.09,0,0,0-3.34.12,26.68,26.68,0,0,0-3.24.72l-.13-.49a8.69,8.69,0,0,0,1.18-.41,4.79,4.79,0,0,0,.56-.26c.18-.07.35-.26.41-.24a2,2,0,0,0-.16-1.05,1.79,1.79,0,0,0-.77-.77,2,2,0,0,0-1.09-.22h-1.23l-2.43,0c-3.2,0-6.27.12-9.16.33a41.41,41.41,0,0,0-4.17.49,24.76,24.76,0,0,0-3.75,1.14c-2.39.87-4.58,1.73-6.57,2.52L546.39,315l-2.49,1-.65.25C543.1,316.34,543,316.36,543,316.35Z"/><path class="cls-11" d="M473.53,327.37a27.1,27.1,0,0,0-5.15,4.45,26.62,26.62,0,0,0-3.44,5.88,5.66,5.66,0,0,1,.52-2,15.66,15.66,0,0,1,2.52-4.24,15.27,15.27,0,0,1,3.71-3.24A5.79,5.79,0,0,1,473.53,327.37Z"/><path class="cls-9" d="M564.64,111.63a35.24,35.24,0,0,0-35.06-32.48h-1.83c-19.68,1.11-29.74,18.45-28.08,38.09L503.06,196a3.57,3.57,0,0,0,2.05,3.07l44.17,20.73-1.37-41.33s18.93-2.91,19.2-21.82C567.24,147.49,566,128.66,564.64,111.63Z"/><path class="cls-11" d="M548.07,178.42a45.92,45.92,0,0,1-24.77-7.3s5.8,13.62,24.68,12Z"/><path class="cls-8" d="M557.94,123.38a2.72,2.72,0,0,1-2.61,2.72,2.59,2.59,0,0,1-2.78-2.45,2.7,2.7,0,0,1,2.6-2.72A2.6,2.6,0,0,1,557.94,123.38Z"/><path class="cls-8" d="M560.56,120.88c-.34.35-2.38-1.17-5.29-1.17s-5,1.45-5.35,1.09c-.16-.15.18-.79,1.11-1.46a7.38,7.38,0,0,1,4.29-1.31,7.15,7.15,0,0,1,4.21,1.36C560.42,120.08,560.72,120.72,560.56,120.88Z"/><path class="cls-8" d="M529.36,124.26a2.7,2.7,0,0,1-2.61,2.72,2.59,2.59,0,0,1-2.78-2.44,2.69,2.69,0,0,1,2.61-2.72A2.58,2.58,0,0,1,529.36,124.26Z"/><path class="cls-8" d="M532,121.36c-.33.35-2.38-1.17-5.28-1.17s-5,1.46-5.36,1.1c-.15-.16.19-.79,1.12-1.47a7.45,7.45,0,0,1,4.29-1.31,7.08,7.08,0,0,1,4.21,1.37C531.84,120.56,532.15,121.2,532,121.36Z"/><path class="cls-8" d="M542.49,142.94c0-.17,1.79-.48,4.72-.84.74-.08,1.45-.23,1.57-.73a3.71,3.71,0,0,0-.49-2.2l-2.18-5.66c-3-8-5.23-14.67-4.9-14.79s3,6.31,6.08,14.36c.73,2,1.42,3.88,2.09,5.69a4.31,4.31,0,0,1,.38,2.92,1.88,1.88,0,0,1-1.22,1.08,5.24,5.24,0,0,1-1.27.17C544.33,143.09,542.5,143.1,542.49,142.94Z"/><path class="cls-8" d="M533.93,144.93c.47,0,.47,3.13,3.17,5.37s6,1.91,6.08,2.35c0,.2-.75.61-2.17.65a7.9,7.9,0,0,1-5.08-1.78,6.84,6.84,0,0,1-2.45-4.51C533.36,145.69,533.71,144.91,533.93,144.93Z"/><path class="cls-8" d="M532.76,110c-.29.79-3.19.41-6.6.81s-6.17,1.33-6.63.62c-.2-.34.28-1.08,1.4-1.84a10.88,10.88,0,0,1,4.91-1.71,11,11,0,0,1,5.16.62C532.25,109,532.88,109.59,532.76,110Z"/><path class="cls-8" d="M559.51,112.46c-.52.66-2.52,0-4.93-.07s-4.44.44-4.91-.25c-.21-.34.12-1,1-1.62a7.09,7.09,0,0,1,7.92.26C559.45,111.46,559.73,112.14,559.51,112.46Z"/><path class="cls-9" d="M502.5,131.24c-.32-.14-13-3.87-12.6,9.06s13.29,9.88,13.3,9.51S502.5,131.24,502.5,131.24Z"/><path class="cls-11" d="M500.24,145c-.06,0-.22.16-.6.35a2.26,2.26,0,0,1-1.68.08c-1.38-.46-2.6-2.59-2.73-4.92a7.42,7.42,0,0,1,.54-3.25,2.59,2.59,0,0,1,1.64-1.78,1.15,1.15,0,0,1,1.35.58c.18.36.11.62.17.64s.28-.23.16-.76a1.52,1.52,0,0,0-.54-.79,1.7,1.7,0,0,0-1.25-.3A3.18,3.18,0,0,0,495,137a7.65,7.65,0,0,0-.67,3.63c.16,2.6,1.57,5,3.45,5.48a2.4,2.4,0,0,0,2.05-.4C500.22,145.34,500.28,145.05,500.24,145Z"/><path class="cls-8" d="M511,92.8,564.9,94c-1.67-3.72-4.67-6.7-7.92-9.17A42.21,42.21,0,0,0,532.56,76c-8.79-.15-26.7,10.56-33.07,16.63-5.1,4.85-5.06,9-5.06,9-.81,7,3.1,14.94,4.66,21.8.8,3.54,2.35,14.26,2.35,14.26h0c3,0,4.07-2.38,3.62-5.32l-.55-11.52s10.1-7.18,5.31-20.33C509.06,99.56,507.42,94.75,511,92.8Z"/><path class="cls-11" d="M522.3,133.7a.34.34,0,0,1-.38-.28.34.34,0,0,1,.24-.41.34.34,0,0,1,.39.28A.36.36,0,0,1,522.3,133.7Z"/><path class="cls-11" d="M527.86,132.45a.38.38,0,0,1-.4-.33.38.38,0,0,1,.24-.46.41.41,0,0,1,.16.79Z"/><path class="cls-11" d="M531.6,132.36c-.18,0-.35-.19-.39-.48s.08-.53.26-.56.34.2.38.49S531.77,132.34,531.6,132.36Z"/><path class="cls-11" d="M525,137.19c-.17,0-.32-.09-.32-.21s.15-.2.32-.2.32.09.32.2S525.2,137.19,525,137.19Z"/><path class="cls-11" d="M530.12,136a.35.35,0,0,1-.35-.34.34.34,0,0,1,.29-.39.36.36,0,0,1,.35.34A.35.35,0,0,1,530.12,136Z"/><path class="cls-11" d="M556.63,132.91a.35.35,0,0,1-.38-.3.32.32,0,1,1,.63-.12A.34.34,0,0,1,556.63,132.91Z"/><path class="cls-11" d="M560.42,132.57a.37.37,0,0,1-.36-.37.33.33,0,1,1,.36.37Z"/><path class="cls-11" d="M553.29,133a.3.3,0,0,1-.37-.21.31.31,0,0,1,.26-.34.31.31,0,0,1,.37.22A.3.3,0,0,1,553.29,133Z"/><path class="cls-11" d="M556.09,136.79a.35.35,0,0,1-.44-.21.32.32,0,1,1,.58-.26A.36.36,0,0,1,556.09,136.79Z"/><path class="cls-11" d="M559.32,136.15a.31.31,0,0,1-.24-.35.3.3,0,0,1,.38-.17.29.29,0,0,1,.24.34A.31.31,0,0,1,559.32,136.15Z"/><path class="cls-8" d="M499.14,93.39a15.94,15.94,0,0,1,15.93-19.82c2.52.11,5,.82,7.52.55,4.67-.51,8.27-4.25,12.6-6.07a16.43,16.43,0,0,1,19.39,5.82c1.64,2.45,2.71,5.47,5.23,7,2.17,1.34,4.91,1.23,7.35,2,4.94,1.49,8.32,6.73,8.06,11.88a14.11,14.11,0,0,1-8.61,11.88,17.25,17.25,0,0,1-14.9-1c-4.07-2.26-7.71-6.12-12.37-6-4.82.14-9,4.69-13.76,3.75-2.48-.5-4.39-2.41-6.21-4.17s-3.9-3.55-6.43-3.7-3.84,3.32-2.93,5.68l-10.87-7.73"/><path class="cls-10" d="M563.86,87.14l-.09.19c-.07.12-.16.3-.31.52a9,9,0,0,1-1.55,1.76,9.49,9.49,0,0,1-3.21,1.85,9.17,9.17,0,0,1-4.89.3,9.73,9.73,0,0,1-5.16-2.94c-1.47-1.62-2.35-3.78-3.72-5.68a7.62,7.62,0,0,0-2.61-2.37,7.75,7.75,0,0,0-3.58-.78,8.13,8.13,0,0,0-3.67,1,6.82,6.82,0,0,0-2.7,2.78c-.65,1.18-1.12,2.48-1.9,3.64A4.51,4.51,0,0,1,527,89.5a6.66,6.66,0,0,1-3.76-1.09A13.88,13.88,0,0,1,520.39,86c-1.67-1.68-3.31-3.35-5.35-3.81a6.8,6.8,0,0,0-5.42,1.28,9.32,9.32,0,0,0-3,3.68,15.31,15.31,0,0,0-1.12,3.47c-.2,1-.29,1.76-.35,2.29a6,6,0,0,1-.12.8.67.67,0,0,1,0-.21c0-.13,0-.34,0-.6a18.76,18.76,0,0,1,.27-2.32,14.65,14.65,0,0,1,1-3.55,9.55,9.55,0,0,1,3-3.86,7.16,7.16,0,0,1,5.73-1.4c2.21.48,3.92,2.24,5.58,3.89A13.58,13.58,0,0,0,523.5,88,6.25,6.25,0,0,0,527,89,4,4,0,0,0,530,87.1c.73-1.07,1.2-2.36,1.87-3.59a7.42,7.42,0,0,1,2.91-3,8.65,8.65,0,0,1,3.91-1,7.46,7.46,0,0,1,6.59,3.37c1.41,2,2.25,4.13,3.65,5.68a9.46,9.46,0,0,0,4.92,2.87,9,9,0,0,0,4.72-.21,9.61,9.61,0,0,0,3.17-1.74A12.27,12.27,0,0,0,563.86,87.14Z"/><path class="cls-10" d="M573.63,87.33a3.2,3.2,0,0,1,.22,1,8.38,8.38,0,0,1-.27,2.89,10,10,0,0,1-2,3.81,11.72,11.72,0,0,1-4.26,3.1,17.59,17.59,0,0,1-9.41,1.07,25.32,25.32,0,0,1-2.82-.57,3.7,3.7,0,0,1-1-.33c0-.09,1.47.28,3.87.53a18.3,18.3,0,0,0,9.15-1.17,11.67,11.67,0,0,0,4.11-3,10,10,0,0,0,2-3.59A11.54,11.54,0,0,0,573.63,87.33Z"/><path class="cls-2" d="M481.6,295.69a10.84,10.84,0,0,0,2.26,5.6c1.16,1.5,3.51,3,5.4,2.87a8.24,8.24,0,0,0,7.27-3.65c2.31-3.67,2.87-11.3,1-15.81-1.27-3.1-4.13-6-7.48-6.06-4.4-.11-7.16,3.07-8.1,6.29"/><path class="cls-8" d="M482,284.93a6.72,6.72,0,0,1,.82-2.16,8.8,8.8,0,0,1,1.65-2.16,7.74,7.74,0,0,1,3.11-1.83,7.88,7.88,0,0,1,2.09-.33,6.29,6.29,0,0,1,2.29.3,8.94,8.94,0,0,1,4.09,2.93,11.89,11.89,0,0,1,2.4,5,21.47,21.47,0,0,1,.45,5.92c-.21,3.14-.82,6.25-2.56,8.63a7.7,7.7,0,0,1-3.32,2.51,9.06,9.06,0,0,1-3.75.63h0a5.68,5.68,0,0,1-2.7-.67,9,9,0,0,1-2-1.41,10.49,10.49,0,0,1-2.91-5.72,5.1,5.1,0,0,1-.06-.66c0-.15,0-.22,0-.22a13.11,13.11,0,0,0,1,3.21,10.32,10.32,0,0,0,2.22,3.13,8.21,8.21,0,0,0,2,1.32,5.3,5.3,0,0,0,2.5.59h0a8,8,0,0,0,6.65-3c1.61-2.23,2.23-5.29,2.43-8.35.21-4-.45-7.95-2.7-10.6a8.66,8.66,0,0,0-3.85-2.82,5.75,5.75,0,0,0-2.15-.31,7.53,7.53,0,0,0-2,.29,7.33,7.33,0,0,0-3,1.68,9.31,9.31,0,0,0-1.68,2.05A20,20,0,0,0,482,284.93Z"/><path class="cls-2" d="M479.26,295.88a10.84,10.84,0,0,0,2.26,5.61c1.16,1.5,3.51,3,5.4,2.86a8.22,8.22,0,0,0,7.27-3.64c2.3-3.67,2.87-11.3,1-15.81-1.27-3.1-4.12-6-7.47-6.06-4.4-.11-7.16,3.07-8.1,6.29"/><path class="cls-8" d="M479.64,285.13a6.72,6.72,0,0,1,.82-2.16,8.56,8.56,0,0,1,1.65-2.16,7.62,7.62,0,0,1,3.11-1.83,7.81,7.81,0,0,1,2.09-.33,6.08,6.08,0,0,1,2.29.3,8.94,8.94,0,0,1,4.09,2.93,11.89,11.89,0,0,1,2.4,5,21.09,21.09,0,0,1,.44,5.92c-.2,3.13-.81,6.25-2.55,8.63a7.6,7.6,0,0,1-3.32,2.5,9.08,9.08,0,0,1-3.75.64h0a5.68,5.68,0,0,1-2.7-.67,8.73,8.73,0,0,1-2-1.41A10.15,10.15,0,0,1,480,299.2a9.63,9.63,0,0,1-.7-2.43,5.25,5.25,0,0,1-.06-.66.55.55,0,0,1,0-.23,13,13,0,0,0,1,3.22,10.15,10.15,0,0,0,2.22,3.13,8.21,8.21,0,0,0,2,1.32,5.3,5.3,0,0,0,2.5.59h0a8,8,0,0,0,6.65-3c1.61-2.23,2.23-5.29,2.42-8.36.22-3.95-.44-7.94-2.7-10.59a8.58,8.58,0,0,0-3.84-2.82,5.75,5.75,0,0,0-2.15-.31,7.67,7.67,0,0,0-2,.28,7.48,7.48,0,0,0-3,1.69,9.31,9.31,0,0,0-1.68,2.05A20,20,0,0,0,479.64,285.13Z"/><path class="cls-2" d="M483.5,284a5.16,5.16,0,0,0-5.37,3.1,8.9,8.9,0,0,0,0,6.52,8.09,8.09,0,0,0,1.67,2.94,4.36,4.36,0,0,0,3,1.45,5.18,5.18,0,0,0,4.13-2.44,9.32,9.32,0,0,0,1.41-7.67c-.46-1.73-1.73-3.51-3.52-3.55"/><path class="cls-8" d="M484.81,284.35s.13,0,.39,0a2.89,2.89,0,0,1,1.09.37,5.33,5.33,0,0,1,2.29,3.44,9.53,9.53,0,0,1-.62,6.13,8,8,0,0,1-2.24,2.94,4.34,4.34,0,0,1-3.86.92,5.38,5.38,0,0,1-3.09-2.52,11.24,11.24,0,0,1-1.28-3.45,7.69,7.69,0,0,1,1-6A5.37,5.37,0,0,1,482,283.9a3.55,3.55,0,0,1,1.14,0,1.59,1.59,0,0,1,.38.1,7.52,7.52,0,0,0-1.49.1,5.29,5.29,0,0,0-3.22,2.23,7.4,7.4,0,0,0-.83,5.73,11,11,0,0,0,1.25,3.29,4.94,4.94,0,0,0,2.79,2.28,3.84,3.84,0,0,0,3.4-.82,7.47,7.47,0,0,0,2.12-2.75,9.22,9.22,0,0,0,.7-5.83,5.32,5.32,0,0,0-2-3.36A4,4,0,0,0,484.81,284.35Z"/><path class="cls-8" d="M488.54,300.44c-.07,0-.18-.31-.53-.71a3.62,3.62,0,0,0-1.7-1.1,9.18,9.18,0,0,0-2.1-.32c-.56,0-.91-.09-.92-.16s.34-.16.91-.21a6,6,0,0,1,2.26.19,3.36,3.36,0,0,1,1.85,1.38C488.63,300,488.6,300.44,488.54,300.44Z"/><path class="cls-8" d="M489.33,282.64c.05.05-.15.36-.62.73a4.93,4.93,0,0,1-2.11.92,4.77,4.77,0,0,1-2.29-.13c-.57-.18-.87-.4-.84-.46a13,13,0,0,0,3,.08A12.78,12.78,0,0,0,489.33,282.64Z"/></g><g id="Character_1" data-name="Character 1"><path class="cls-8" d="M213.8,107.73c.12-4.35-3.9-7.72-8-9.31s-8.56-2.2-12.18-4.63c-3.2-2.16-5.35-5.52-8.06-8.27a26.83,26.83,0,0,0-45.12,12.31c-1.55,6.21-.49,13.54,4.4,17.66,5.68,4.79,14.09,3.72,21.36,2.24s15.51-3,21.58,1.31c3.66,2.58,5.76,6.77,8,10.64s5.05,7.84,9.28,9.3,10-1.06,10.15-5.54"/><path class="cls-8" d="M213.51,110.12c-.48,3.66,2.16,6.92,4.79,9.5s5.6,5.31,6.07,9c.54,4.26-2.58,8.47-1.67,12.67.57,2.67,2.65,4.73,3.91,7.15a15.21,15.21,0,0,1,.77,11.2c-1.08,3.67-2.81,11.89-5.37,14.74-7.07,7.91-18.32,14.73-28.65,17.1s-21.07,2.39-31.65,1.74c-8.66-.54-18.63-.14-25.85-12.06-3.73-6.17-5.59-14.38-7.57-21.31-1.72-6-3.2-12.38-1.42-18.33,1-3.47,3.13-6.55,4.15-10,1.28-4.33.81-9,1.32-13.47a30.91,30.91,0,0,1,44-24.41"/><path class="cls-9" d="M136.49,125.1c.81-12.44,9.08-27.67,21.47-26.34l38.66,9.87a7.29,7.29,0,0,1,6.51,7.41l-4.35,93.27.27.06s-8.81,26.31-34.38,18.27c-5.07-1.59-7.38-7.14-8.39-12.84l-.26,0c0-.67,0-1.3,0-2a61.23,61.23,0,0,1-.15-12.81h0c-.07-7.53-.06-10.62-.07-10.55s-15.88-2.67-19.12-23.4C135,155.81,135.59,138.91,136.49,125.1Z"/><path class="cls-8" d="M142.72,137.59a2.64,2.64,0,0,0,2.55,2.68,2.54,2.54,0,0,0,2.75-2.39,2.67,2.67,0,0,0-2.56-2.69A2.54,2.54,0,0,0,142.72,137.59Z"/><path class="cls-8" d="M140.14,133.89c.32.35,2.34-1.13,5.2-1.12s4.95,1.45,5.27,1.1c.15-.16-.19-.78-1.1-1.45a7.35,7.35,0,0,0-4.21-1.31,7.07,7.07,0,0,0-4.15,1.33C140.27,133.11,140,133.74,140.14,133.89Z"/><path class="cls-8" d="M170.83,137.59a2.65,2.65,0,0,0,2.56,2.68,2.53,2.53,0,0,0,2.74-2.39,2.67,2.67,0,0,0-2.55-2.69A2.54,2.54,0,0,0,170.83,137.59Z"/><path class="cls-8" d="M168.25,134.49c.33.35,2.35-1.14,5.21-1.12s4.95,1.45,5.26,1.1c.15-.16-.18-.79-1.1-1.45a7.18,7.18,0,0,0-4.21-1.31,6.94,6.94,0,0,0-4.14,1.33C168.39,133.71,168.09,134.34,168.25,134.49Z"/><path class="cls-8" d="M157.82,155.68c0-.16-1.76-.47-4.64-.85-.73-.08-1.42-.22-1.55-.72a3.73,3.73,0,0,1,.5-2.17l2.17-5.55c3-7.91,5.2-14.42,4.88-14.54s-3,6.2-6,14.11q-1.09,2.92-2.08,5.59a4.23,4.23,0,0,0-.39,2.87,1.86,1.86,0,0,0,1.2,1.07,5,5,0,0,0,1.24.17C156,155.82,157.81,155.84,157.82,155.68Z"/><path class="cls-11" d="M155.77,189.52a52.73,52.73,0,0,0,27.77-7.34s-7,14.33-27.75,12.34Z"/><path class="cls-11" d="M159,162.57a5.15,5.15,0,0,1,4.62-1.9,4.76,4.76,0,0,1,3.25,1.75,3,3,0,0,1,.21,3.41,3.46,3.46,0,0,1-3.75.94,10.87,10.87,0,0,1-3.65-2.19,3.11,3.11,0,0,1-.81-.85,1,1,0,0,1,0-1.06"/><path class="cls-8" d="M166.23,157.68c-.46,0-.47,3.07-3.14,5.27s-6,1.85-6,2.28c0,.2.74.61,2.14.65a7.75,7.75,0,0,0,5-1.73,6.76,6.76,0,0,0,2.43-4.42C166.79,158.43,166.45,157.66,166.23,157.68Z"/><path class="cls-8" d="M167,129.48c.28.78,3.14.42,6.49.83s6.07,1.33,6.52.63c.2-.33-.27-1.06-1.36-1.82a11,11,0,0,0-4.83-1.7,10.85,10.85,0,0,0-5.08.59C167.47,128.5,166.85,129.11,167,129.48Z"/><path class="cls-8" d="M141.2,125.62c.51.65,2.48,0,4.85-.05s4.37.45,4.84-.23c.2-.33-.12-1-1-1.6a7,7,0,0,0-7.8.23C141.26,124.63,141,125.3,141.2,125.62Z"/><path class="cls-8" d="M211.09,176.81a18.4,18.4,0,0,1-21.89-20.35c.64-5.09,3.39-10.27,1.62-15.08-2.33-6.37-11.26-8.33-13.63-14.69-1.38-3.69-.14-8-1.7-11.64-1.47-3.4-5.05-5.36-8.54-6.62s-7.22-2.13-10.15-4.41-4.75-6.57-2.86-9.76a196.73,196.73,0,0,1,45.29,11c3.38,1.26,6.93,2.78,8.93,5.78,2.12,3.19,2,7.3,1.84,11.11L207.39,178"/><path class="cls-10" d="M209.79,183.94a1.33,1.33,0,0,0,.34-.21l.92-.71c.8-.62,2-1.56,3.43-2.84a36.09,36.09,0,0,0,4.87-5.13,19,19,0,0,0,3.88-8.53,13,13,0,0,0-2.67-10.9,41.64,41.64,0,0,0-4.83-4.12,11.26,11.26,0,0,1-3.77-5.14c-1.53-4.22-.85-9.12-1.44-14.12A28.1,28.1,0,0,0,204.64,118a19.39,19.39,0,0,0-6.14-5,38.24,38.24,0,0,0-7.25-2.45,16.89,16.89,0,0,1-6.37-3.13,25.32,25.32,0,0,1-4.62-5.1c-2.6-3.7-4.53-7.64-7-10.92A23.49,23.49,0,0,0,169.17,87a15.62,15.62,0,0,0-4.84-2.63,10.3,10.3,0,0,0-9.21.91,8.49,8.49,0,0,0-3.27,6.21,6.24,6.24,0,0,0,1.25,4.27,4.29,4.29,0,0,0,.84.81c.22.15.33.23.34.21a2.27,2.27,0,0,0-.28-.29,4.28,4.28,0,0,1-.75-.85,6.1,6.1,0,0,1-1-4.13,8.13,8.13,0,0,1,3.21-5.81,9.8,9.8,0,0,1,8.7-.72,15,15,0,0,1,4.61,2.57,23.51,23.51,0,0,1,3.92,4.24c2.4,3.23,4.29,7.16,6.93,11a25.42,25.42,0,0,0,4.76,5.28,17.72,17.72,0,0,0,6.65,3.32,36.76,36.76,0,0,1,7.09,2.4,18.32,18.32,0,0,1,5.86,4.79,27.22,27.22,0,0,1,5.69,13.81c.61,4.84-.09,9.8,1.54,14.3a12.18,12.18,0,0,0,4.05,5.47,40.45,40.45,0,0,1,4.77,4,12.33,12.33,0,0,1,2.6,10.3,18.78,18.78,0,0,1-3.64,8.33,38.32,38.32,0,0,1-4.71,5.17c-1.41,1.31-2.55,2.29-3.31,3A11.17,11.17,0,0,0,209.79,183.94Z"/><path class="cls-8" d="M213.58,186.51c4.26-4.12,11.53-.54,15.11,4.19s6.11,10.81,11.54,13.19,12.48.33,17,4.12c6.28,5.22,2.75,17.31,9.55,21.84,2.69,1.81,6.25,1.74,9.13,3.23,6.79,3.5,6.71,13.08,5.66,20.65-1.47,10.62-3.09,21.63-8.95,30.6s-17.27,15.3-27.41,11.84c-9.75-3.33-14.76-13.86-18.72-23.37l-16.47-39.47c-3.17-7.61-6.38-15.34-7.41-23.52s.35-17,5.56-23.41"/><path class="cls-6" d="M216.31,177.44c3.09-.38,5.46,3.42,4.64,6.43s-3.7,5-6.65,6a9.92,9.92,0,0,1-5.13.6,5.07,5.07,0,0,1-3.89-3.13,2.94,2.94,0,0,1,1.42-3.89c2-1.27,3.23-2.27,4.84-3.16,2.46-1.36,2.31-1.54,4.77-2.89"/><polygon class="cls-6" points="145.07 210.79 157.1 201.68 202.41 198.78 204.23 204.85 189.49 296.82 201.12 406.54 137.91 406.54 145.07 210.79"/><g class="cls-7"><path d="M193.59,367.61c-1.45-1.54-3.82-3.67-5.93-3.71-15.14-.33-30.59-1.85-45.73-2.18l-1.21,44.84c3.62-6.39,7.05-13,8-20.3.42-3.18.95-7,3.85-8.34,1.64-.77,3.57-.47,5.34-.12,5.47,1.08,10.9,2.5,16.46,2.84s11.39-.46,16.06-3.5a9.85,9.85,0,0,0,3.84-4.15A5.1,5.1,0,0,0,193.59,367.61Z"/></g><path class="cls-6" d="M154.88,212.64l-1.41-13.15a4.18,4.18,0,0,1,3.78-4.59l41.7-3.77a2,2,0,0,1,2.15,1.9l.47,15.65-12.08,20.49-12.41,4H161.9l-8.73-9.32Z"/><path class="cls-8" d="M195.41,203.66s-.59-.06-1.67-.17a28.73,28.73,0,0,0-4.54-.08,45.21,45.21,0,0,0-6.68,1c-2.49.52-5.2,1.26-8.07,2a53.72,53.72,0,0,1-8.21,1.46,21.23,21.23,0,0,1-6.81-.46,14.37,14.37,0,0,1-4.24-1.77,10.2,10.2,0,0,1-1-.73c-.22-.19-.33-.29-.31-.3s.5.33,1.43.86a15.51,15.51,0,0,0,4.23,1.58,21.55,21.55,0,0,0,6.68.34,56.53,56.53,0,0,0,8.13-1.49c2.86-.7,5.58-1.42,8.09-1.92a42.47,42.47,0,0,1,6.76-.86,24.93,24.93,0,0,1,4.59.25,10.28,10.28,0,0,1,1.23.24C195.27,203.6,195.42,203.64,195.41,203.66Z"/><g class="cls-7"><path d="M155.87,205.72c-1.12,3.07-1.15,6.88,1.12,9.23,1.84,1.92,4.81,2.4,7.42,1.88a23.64,23.64,0,0,0,7.25-3.26c5.74-3.42,11.58-6.95,18.1-8.4a2.41,2.41,0,0,0,1.17-.49.77.77,0,0,0,0-1.13,1.1,1.1,0,0,0-.54-.16c-5.77-.57-11.5,1.06-17.15,2.33s-11.7,2.16-17.15.2"/></g><path class="cls-8" d="M163.84,194.48a3.73,3.73,0,0,0-1.43,1.36c-.66,1.06-.62,2.85-.57,4.79.11,3.89.75,7,.6,7a7.08,7.08,0,0,1-.57-2,31.65,31.65,0,0,1-.55-5,23.06,23.06,0,0,1,.06-2.79,4.78,4.78,0,0,1,.72-2.21,2.81,2.81,0,0,1,1.17-1.05C163.62,194.45,163.83,194.45,163.84,194.48Z"/><path class="cls-8" d="M174.86,205.91a60.5,60.5,0,0,0-.3-6.37c-.48-3.49-1.64-6.14-1.48-6.2a5.63,5.63,0,0,1,.85,1.7,20.51,20.51,0,0,1,1.15,4.43,20.21,20.21,0,0,1,.13,4.57A5.71,5.71,0,0,1,174.86,205.91Z"/><path class="cls-8" d="M188.29,192.24a4,4,0,0,1,.79,1.55,10.88,10.88,0,0,1,.55,4.17,10.72,10.72,0,0,1-1.1,4.06,3.77,3.77,0,0,1-1,1.43,13.78,13.78,0,0,0,.75-11.21Z"/><path class="cls-3" d="M129.81,216.7s-14.22,9.53-18,26.73c-2.94,13.52-11,84.93-11,84.93L86.78,355.79,96,377.67h0a33.59,33.59,0,0,0,22.1-6.32l6.19-4.49L135.62,350Z"/><polygon class="cls-3" points="153.91 204.09 129.81 216.7 124.12 235.4 119.05 289.58 128.59 353.11 111.85 406.34 140.72 406.56 141.41 375.35 144.29 274.36 147.12 210.02 153.91 204.09"/><path class="cls-8" d="M142.24,288.28a4.93,4.93,0,0,1-.45-.75c-.29-.55-.69-1.28-1.2-2.21s-1-2.22-1.61-3.64c-.29-.72-.54-1.52-.83-2.34s-.61-1.71-.86-2.66c-2.27-7.48-3.77-18.29-3.45-30.21,0-.93.07-1.84.13-2.75v-.16l.15-.06,4.22-1.77-.06.44-4.22-3.39-.09-.07v-.1a36.49,36.49,0,0,1,1.92-12.06c1.06-3.53,2.22-6.56,3.24-9.06s1.91-4.45,2.54-5.78l.74-1.51a4.33,4.33,0,0,1,.29-.51,2.37,2.37,0,0,1-.21.55l-.67,1.54c-.58,1.35-1.42,3.32-2.4,5.82s-2.1,5.55-3.12,9.07a36.92,36.92,0,0,0-1.83,11.9l-.1-.18,4.23,3.38.33.27-.39.16L134.33,244l.16-.22c-.06.89-.1,1.81-.13,2.72-.31,11.87,1.12,22.63,3.29,30.1.23.95.54,1.82.81,2.65s.51,1.62.8,2.34c.59,1.43,1.05,2.68,1.52,3.66l1.1,2.25A7,7,0,0,1,142.24,288.28Z"/><path class="cls-8" d="M123.32,326.23s-.09-.27-.23-.79l-.57-2.27c-.25-1-.53-2.2-.81-3.62s-.65-3-.93-4.82-.66-3.76-.93-5.89-.54-4.39-.79-6.78c-.44-4.8-.73-10.09-.73-15.65s.33-10.85.78-15.64c.27-2.4.5-4.68.83-6.79s.62-4.09.94-5.88.66-3.41,1-4.82.58-2.63.83-3.62.43-1.7.58-2.27.22-.78.23-.78a4.92,4.92,0,0,1-.13.81l-.48,2.29c-.22,1-.49,2.21-.74,3.63s-.61,3-.88,4.82-.61,3.76-.87,5.88-.53,4.38-.78,6.77c-.42,4.78-.72,10.06-.74,15.6s.28,10.82.68,15.6c.25,2.39.45,4.66.75,6.78s.57,4.08.86,5.88.6,3.4.85,4.82.51,2.64.73,3.63.36,1.73.47,2.3A3.65,3.65,0,0,1,123.32,326.23Z"/><path class="cls-8" d="M129.84,375a10.15,10.15,0,0,1-1.17,2.42,39.64,39.64,0,0,1-8.21,10,11,11,0,0,1-2.14,1.62,17.68,17.68,0,0,1,1.89-1.89,57,57,0,0,0,4.37-4.74,56.18,56.18,0,0,0,3.78-5.21A18.52,18.52,0,0,1,129.84,375Z"/><path class="cls-3" d="M240.62,215.16A33.15,33.15,0,0,1,261,238.76c7.89,34.76,21.38,81,21.6,95.92.26,19-8,32-18.89,34.41-8.58,1.89-86.32-2.36-86.32-2.36l-3.64-29,63-9.27-8.62-48.17,8.53-66.71Z"/><path class="cls-3" d="M236.62,213.61l-17.41-7.12-18.35-10.75-.11,3.15h0a18.43,18.43,0,0,1,2.18,12.75l-15.27,79.67,3.46,58.21,7.11,57h55.21L228.09,346.9,237,266.52Z"/><path class="cls-8" d="M252.75,369.57l-.38.06-1.11.1c-1,.11-2.43.1-4.31.15-3.74,0-9.18-.08-15.94-.3-13.54-.46-32.37-1.36-53.64-2.59l-.21,0,0-.21c-.43-3.45-.89-7.09-1.35-10.78-.79-6.26-1.55-12.35-2.28-18.19l0-.24.24,0,48.08-7,14.12-2,3.79-.52,1-.12.34,0a1.3,1.3,0,0,1-.33.08l-1,.16-3.78.6-14.09,2.16L173.79,338l.21-.28c.74,5.84,1.51,11.93,2.29,18.18.47,3.7.92,7.34,1.35,10.79l-.24-.23c21.26,1.25,40.1,2.22,53.62,2.76,6.76.27,12.19.42,15.93.46,1.87,0,3.33,0,4.3-.05l1.11-.06Z"/><path class="cls-8" d="M227.58,275.46a1.89,1.89,0,0,1,.14.53l.3,1.54c.26,1.42.61,3.35,1,5.69.85,4.88,2,11.5,3.28,18.81s2.32,13.94,3.14,18.82c.37,2.36.67,4.3.89,5.72l.22,1.56a2.27,2.27,0,0,1,0,.55,2.08,2.08,0,0,1-.15-.53c-.08-.41-.18-.92-.31-1.55-.26-1.41-.62-3.34-1.06-5.68-.87-4.81-2-11.46-3.28-18.81s-2.36-14-3.13-18.82c-.36-2.36-.66-4.3-.88-5.72-.08-.63-.15-1.15-.21-1.57A3.66,3.66,0,0,1,227.58,275.46Z"/><path class="cls-8" d="M208.87,201.35s0,.06.07.19l.16.59c.13.51.35,1.27.56,2.26A70.87,70.87,0,0,1,211,213a97.37,97.37,0,0,1,.34,13.08c-.18,5-.7,10.47-1.45,16.3l0,.18-.18,0L204,243.62l.19-.35a29.21,29.21,0,0,1,.92,2.78c1.86,6.76,1,13.6-.65,19.32a60.65,60.65,0,0,1-6.68,14.4c-2.38,3.85-4.52,6.82-6,8.87L190,291l-.46.6c-.1.13-.16.2-.17.19a1.1,1.1,0,0,1,.13-.22l.42-.63,1.64-2.4c1.43-2.08,3.53-5.08,5.85-8.94A61.81,61.81,0,0,0,204,265.23c1.65-5.66,2.43-12.41.61-19-.25-.95-.58-1.87-.9-2.73l-.11-.3.31,0,5.69-1.05-.21.22c.76-5.82,1.31-11.3,1.51-16.25a102.16,102.16,0,0,0-.22-13,79.75,79.75,0,0,0-1.17-8.57c-.18-1-.38-1.76-.47-2.28,0-.24-.09-.43-.12-.59S208.86,201.35,208.87,201.35Z"/><path class="cls-6" d="M208.87,283.07V270.36s.16-3.14-2.48-2.48-2.15,5.61-2.15,5.61-.49,19.32.66,19.15,1.6-1.65,1.6-1.65v-7.43Z"/><path class="cls-8" d="M219.85,283.86a45.4,45.4,0,0,1-6.81.26,45.4,45.4,0,0,1-6.81-.26,45.4,45.4,0,0,1,6.81-.26A45.4,45.4,0,0,1,219.85,283.86Z"/><path class="cls-8" d="M245,222.7a10.32,10.32,0,0,1-1.42.52,32.45,32.45,0,0,0-3.78,1.64,29.35,29.35,0,0,0-10.22,8.7,21,21,0,0,0-2,3.27,20.41,20.41,0,0,0-1.21,3.37,33,33,0,0,0-1,6c-.14,1.73-.17,3.14-.18,4.12a10.52,10.52,0,0,1,0,1.51,6.49,6.49,0,0,1-.17-1.51,36.48,36.48,0,0,1,0-4.15,30.9,30.9,0,0,1,.91-6.1,20.4,20.4,0,0,1,1.21-3.46,21.74,21.74,0,0,1,2-3.36,28.24,28.24,0,0,1,10.48-8.73,26.08,26.08,0,0,1,3.87-1.5A6.67,6.67,0,0,1,245,222.7Z"/><polygon class="cls-8" points="20.9 328.36 111.85 362.05 188.52 373.77 97.36 329.33 20.9 328.36"/><path class="cls-9" d="M59.82,364.69A38.65,38.65,0,0,0,55,350.91a10,10,0,0,1-1.24-2.59,3,3,0,0,1,.51-2.72c1.17-1.27,3.3-.7,4.74.26a16.64,16.64,0,0,1,6.12,8.57,49.89,49.89,0,0,1,2,10.52"/><path class="cls-9" d="M95.27,356H90.75a8.77,8.77,0,0,0-4-2.28,3.14,3.14,0,0,0-3,1.16c2-3.33,4.2-7,4.62-8,.81-2-1-3.42-3.91-3.42s-15.79,18.23-15.79,18.23,8-14.66,8.77-16.9c1.94-5.6-4.19-6-6.41-3.32-2.76,3.36-13.91,20.22-13.91,20.22s-2.12,3.42-.66,6.68,5.7,2,5.7,2a5.47,5.47,0,0,0,3,4.53c3.26,1.81,7.56-.29,7.56-.29l16.64,3.74,6-.6a18.47,18.47,0,0,0,16.44-15.68h0Z"/><path class="cls-11" d="M84.06,354.66c.19.11-2,3.6-4.9,7.77-1.44,2.09-2.77,4-3.75,5.3a14.07,14.07,0,0,1-1.69,2.11,13.84,13.84,0,0,1,1.38-2.32c.91-1.39,2.19-3.29,3.63-5.38s2.76-4,3.72-5.32l1.16-1.59A3.43,3.43,0,0,1,84.06,354.66Z"/><path class="cls-11" d="M83.06,373.22a15.57,15.57,0,0,1,1.48-2.72c1-1.64,2.38-3.88,3.92-6.35.77-1.24,1.51-2.42,2.11-3.51a4,4,0,0,0,.37-3.08,7.55,7.55,0,0,0-1.42-2.65s.27.14.64.54a5.18,5.18,0,0,1,1.13,2,4.33,4.33,0,0,1-.29,3.41c-.6,1.13-1.33,2.31-2.09,3.55-1.55,2.48-3,4.69-4.06,6.27A22.71,22.71,0,0,1,83.06,373.22Z"/><path class="cls-11" d="M91.81,374.88a9.43,9.43,0,0,1,.89-2.6l1.19-2.71a22.38,22.38,0,0,0,1.22-3.36,4,4,0,0,0-.53-3.25,3.07,3.07,0,0,0-1.19-.85,3.26,3.26,0,0,0-1.24-.34,5,5,0,0,0-1.79.62,2.13,2.13,0,0,1-.68.28s.19-.19.58-.45a8.19,8.19,0,0,1,.75-.45,2.64,2.64,0,0,1,1.14-.37,3.52,3.52,0,0,1,1.42.32,3.38,3.38,0,0,1,1.38.94,4.29,4.29,0,0,1,.66,3.67,19.14,19.14,0,0,1-1.29,3.44c-.47,1-.92,1.91-1.29,2.67C92.28,373.94,91.88,374.9,91.81,374.88Z"/><path class="cls-11" d="M94.88,359.13a1.68,1.68,0,0,1,.7.22,7.76,7.76,0,0,1,1.74,1,9.63,9.63,0,0,1,3.58,5.53,9.73,9.73,0,0,1-.88,6.53,8.41,8.41,0,0,1-1.14,1.66c-.32.35-.53.52-.55.5s.66-.82,1.35-2.32a9.63,9.63,0,0,0-2.59-11.61C95.83,359.59,94.84,359.22,94.88,359.13Z"/><path class="cls-11" d="M65.58,349.57a49.44,49.44,0,0,1-3.76,6,48,48,0,0,1-4.2,5.73,48,48,0,0,1,3.76-6A49,49,0,0,1,65.58,349.57Z"/><path class="cls-9" d="M173.48,338.85l-10.4-2.36-10-9.4a7,7,0,0,0-4.46-1.92l-18.17-1.05a7.06,7.06,0,0,0-5,1.67l-13,11,56.67,27.63,7.78.69Z"/><path class="cls-11" d="M142.67,334a34.25,34.25,0,0,1-3.5-.43,15.16,15.16,0,0,0-8.23.85,21.79,21.79,0,0,0-3.92,2.45c-1.15.87-2.18,1.66-3.09,2.28a17.57,17.57,0,0,1-2.25,1.31,3,3,0,0,1-.89.32c0-.08,1.19-.63,2.93-1.93.87-.65,1.87-1.47,3-2.36a19.73,19.73,0,0,1,4-2.54,11.77,11.77,0,0,1,4.64-1,20.75,20.75,0,0,1,3.85.29c1.09.18,1.95.38,2.54.52A3.58,3.58,0,0,1,142.67,334Z"/><path class="cls-11" d="M146.4,344.11c0,.09-.74-.24-2-.37a10.64,10.64,0,0,0-4.67.65,24.63,24.63,0,0,0-4.28,2.2,8,8,0,0,1-1.77,1,7.85,7.85,0,0,1,1.56-1.29,18.81,18.81,0,0,1,4.31-2.38,9.54,9.54,0,0,1,4.9-.52A3.87,3.87,0,0,1,146.4,344.11Z"/><path class="cls-11" d="M169.79,345.79a57.9,57.9,0,0,1-3.52-4.67c-1.93-2.59-3.59-4.61-3.48-4.71a35.48,35.48,0,0,1,7,9.38Z"/><path class="cls-6" d="M141.17,325.2l23-21.46a2.19,2.19,0,0,0-.16-3.35h0a2.2,2.2,0,0,0-2.81.1l-27,24.23"/><g class="cls-7"><path d="M141.17,325.2l23-21.46a2.19,2.19,0,0,0-.16-3.35h0a2.2,2.2,0,0,0-2.81.1l-27,24.23"/></g></g><g id="Character_2" data-name="Character 2"><path class="cls-12" d="M329.4,118.46c-.36-.14-14.31-3.8-13.47,10.3s14.83,10.35,14.84,10S329.4,118.46,329.4,118.46Z"/><path class="cls-13" d="M326.14,133.62c-.07,0-.24.19-.64.4a2.48,2.48,0,0,1-1.84.15c-1.52-.46-2.92-2.75-3.14-5.29a8.24,8.24,0,0,1,.48-3.56,2.84,2.84,0,0,1,1.74-2,1.26,1.26,0,0,1,1.49.58c.21.39.14.67.21.69s.29-.25.14-.83a1.55,1.55,0,0,0-.61-.85,1.86,1.86,0,0,0-1.38-.27,3.43,3.43,0,0,0-2.43,2.34,8.34,8.34,0,0,0-.62,4c.26,2.84,1.88,5.41,3.95,5.88a2.68,2.68,0,0,0,2.23-.51C326.13,134,326.19,133.64,326.14,133.62Z"/><path class="cls-8" d="M364.62,68.07c7.17,0,14.47,0,23.44,4.68,5.66,3,9.19,7.64,12.13,13.3a30.58,30.58,0,0,1,3.34,14.89c-.26,4.87-.28,8.29-2.23,12.77"/><path class="cls-12" d="M361.75,69.17a38,38,0,0,1,40.65,35.94c.92,17.67,1.73,36.79,1.54,46.41-.42,20.66-21.11,23.7-21.11,23.7s.46,6.13,1,13.73a27.22,27.22,0,0,1-26.12,29h0a27.2,27.2,0,0,1-28.22-26.18l-3.07-83.26a38,38,0,0,1,35.36-39.36Z"/><path class="cls-13" d="M382.83,175.22s-12.7.66-26.5-8.16c0,0,6.25,15,26.87,13.33Z"/><path class="cls-8" d="M394.48,116.6a3,3,0,0,1-2.86,3,2.82,2.82,0,0,1-3-2.69,2.94,2.94,0,0,1,2.86-3A2.81,2.81,0,0,1,394.48,116.6Z"/><path class="cls-8" d="M397.35,112.43c-.37.38-2.59-1.29-5.77-1.31s-5.51,1.55-5.85,1.16c-.17-.17.21-.86,1.23-1.59a8.09,8.09,0,0,1,4.69-1.41,7.79,7.79,0,0,1,4.58,1.52C397.2,111.56,397.53,112.26,397.35,112.43Z"/><path class="cls-8" d="M363.35,116.6a3,3,0,0,1-2.87,3,2.83,2.83,0,0,1-3-2.69,3,3,0,0,1,2.87-3A2.81,2.81,0,0,1,363.35,116.6Z"/><path class="cls-8" d="M366.14,112.77c-.37.38-2.6-1.29-5.77-1.31s-5.51,1.56-5.86,1.16c-.16-.17.21-.86,1.24-1.59a8.09,8.09,0,0,1,4.69-1.41,7.82,7.82,0,0,1,4.58,1.52C366,111.9,366.32,112.6,366.14,112.77Z"/><path class="cls-8" d="M377.47,136.41c0-.18,2-.51,5.16-.89.81-.08,1.58-.23,1.72-.79a4,4,0,0,0-.52-2.4c-.74-2-1.53-4-2.35-6.2-3.26-8.81-5.61-16.06-5.25-16.19s3.29,6.92,6.54,15.73c.79,2.18,1.54,4.25,2.25,6.23a4.72,4.72,0,0,1,.4,3.19,2,2,0,0,1-1.35,1.17,5.16,5.16,0,0,1-1.37.18C379.48,136.59,377.48,136.59,377.47,136.41Z"/><path class="cls-8" d="M368.11,138.53c.52,0,.49,3.42,3.42,5.89s6.61,2.12,6.63,2.6c0,.22-.82.66-2.38.69a8.55,8.55,0,0,1-5.53-2,7.51,7.51,0,0,1-2.65-4.93C367.48,139.36,367.87,138.51,368.11,138.53Z"/><path class="cls-8" d="M367.06,100.34c-.33.86-3.49.42-7.22.84s-6.75,1.41-7.24.63c-.21-.37.32-1.18,1.54-2A12.08,12.08,0,0,1,359.51,98a12.23,12.23,0,0,1,5.64.71C366.51,99.24,367.19,99.93,367.06,100.34Z"/><path class="cls-8" d="M396.9,101.13c-.56.71-2.74,0-5.37-.11s-4.86.45-5.37-.31c-.22-.37.13-1.09,1.11-1.76a7.79,7.79,0,0,1,8.66.33C396.85,100,397.15,100.78,396.9,101.13Z"/><path class="cls-8" d="M326.63,115s.9,4.78,1.14,6.94c.09.78,0,9.54,2.11,10,1.83.37,5.46-1.29,7.08-4.91s4.7-12.31,4.36-16.26c-.45-5.39-.7-10.86.38-16.16s3.61-10.47,7.86-13.8,10.4-4.5,15.24-2.07c3,1.49,5.21,4.14,8,6a12.42,12.42,0,0,0,8.52,2.22,8,8,0,0,0,6.59-5.4c.88-3.15-.74-6.61-3.27-8.7s-5.78-3-9-3.68c-8.91-1.77-18.36-1.42-26.82,1.87s-16,9.61-19.6,17.94c-4.18,9.64-3.7,15.54-2.59,26"/><path class="cls-8" d="M373.85,116.74a25,25,0,0,0-.53-3.4,14,14,0,0,0-5.12-7.61,13.75,13.75,0,0,0-5.83-2.57,13.93,13.93,0,0,0-7.26.62,13.08,13.08,0,0,0-3.48,1.88,13.31,13.31,0,0,0-2.92,2.93,13.76,13.76,0,0,0,0,16.29,12.94,12.94,0,0,0,2.92,2.94,13.08,13.08,0,0,0,3.48,1.88,13.93,13.93,0,0,0,18.21-9.56,25,25,0,0,0,.53-3.4.6.6,0,0,1,0,.23v.67a5.64,5.64,0,0,1-.09,1.08,9.34,9.34,0,0,1-.26,1.47,14,14,0,0,1-5.09,7.85A14.14,14.14,0,0,1,355,130.15a14.42,14.42,0,0,1-6.65-5,14.23,14.23,0,0,1,0-16.9,13.4,13.4,0,0,1,3-3,13.2,13.2,0,0,1,3.62-1.93,14.18,14.18,0,0,1,13.47,2.1,14,14,0,0,1,5.09,7.86,9.44,9.44,0,0,1,.26,1.46,5.74,5.74,0,0,1,.09,1.09v.67A.6.6,0,0,1,373.85,116.74Z"/><path class="cls-8" d="M410.22,116.74a26.34,26.34,0,0,0-.54-3.4,14,14,0,0,0-5.12-7.61,13.7,13.7,0,0,0-5.83-2.57,13.9,13.9,0,0,0-7.25.62,13.78,13.78,0,0,0-6.4,4.81,13.72,13.72,0,0,0,0,16.29,13.71,13.71,0,0,0,6.4,4.82,13.92,13.92,0,0,0,18.2-9.56,26.34,26.34,0,0,0,.54-3.4,2.07,2.07,0,0,1,0,.23c0,.18,0,.4,0,.67a6.45,6.45,0,0,1-.08,1.08,9.46,9.46,0,0,1-.27,1.47,13.91,13.91,0,0,1-5.09,7.85,14.14,14.14,0,0,1-13.47,2.11,13.51,13.51,0,0,1-3.62-1.94,13.31,13.31,0,0,1-3-3,14.19,14.19,0,0,1,0-16.9,14.15,14.15,0,0,1,6.64-5,14.17,14.17,0,0,1,13.47,2.1,13.9,13.9,0,0,1,5.09,7.86,9.57,9.57,0,0,1,.27,1.46,6.56,6.56,0,0,1,.08,1.09c0,.27,0,.49,0,.67A2.07,2.07,0,0,1,410.22,116.74Z"/><path class="cls-8" d="M382.47,115.24a7.62,7.62,0,0,1-1.3-.45,8.61,8.61,0,0,0-3.18-.4,8.34,8.34,0,0,0-3.1.82,8.74,8.74,0,0,1-1.22.62s.3-.47,1-.94a7.22,7.22,0,0,1,6.6-.44C382.11,114.82,382.51,115.19,382.47,115.24Z"/><path class="cls-8" d="M388.1,80.39c.21-1.07-.14-1.67.46-2.11s2,.81,2.46,1.33c.16.17.64-.48.83-.61a3.65,3.65,0,0,0,.36-1.37c-.09-.74-1.26-.95-1.81-1.45a5.56,5.56,0,0,0-1.95-1.11,1.83,1.83,0,0,0-1.86.11,1.81,1.81,0,0,0-.42,1.4,4,4,0,0,0,.28,1.45,2.05,2.05,0,0,0,1,1.07"/><path class="cls-3" d="M325.86,104s10.13,3.71,15.4,5.94l-.3-5.18-14.73-5.83S325.85,102.78,325.86,104Z"/><path class="cls-3" d="M326.81,96A58.3,58.3,0,0,1,334,98.7a54.82,54.82,0,0,1,7,3.23,58.3,58.3,0,0,1-7.17-2.75A56.51,56.51,0,0,1,326.81,96Z"/><path class="cls-6" d="M329.86,205.07l-.78-24.52S334,203,359.46,202.7c24.38-.28,23.93-19.77,23.93-19.77l.87,9.88v39.92l-15.9,65.11-20.31,2.58-22.44-89Z"/><path class="cls-8" d="M381.12,197.22a2.5,2.5,0,0,1-.29.52,14.63,14.63,0,0,1-1,1.43,21,21,0,0,1-4.54,4.39,26.12,26.12,0,0,1-8.48,4,30.06,30.06,0,0,1-11.45.8,37.4,37.4,0,0,1-11-3.31,47.88,47.88,0,0,1-8-4.84,56.34,56.34,0,0,1-4.86-4c-.55-.5-.95-.92-1.23-1.19a2.12,2.12,0,0,1-.4-.45,3.66,3.66,0,0,1,.47.37l1.3,1.12c1.12,1,2.78,2.34,4.94,3.88a49.87,49.87,0,0,0,8,4.7,37.62,37.62,0,0,0,10.85,3.23,29.89,29.89,0,0,0,11.25-.74,26.4,26.4,0,0,0,8.4-3.82A22.24,22.24,0,0,0,379.7,199C380.63,197.89,381.08,197.19,381.12,197.22Z"/><path class="cls-3" d="M363.42,406.49l-.37-115.71-32.86-84.44-1.1-25.42-20,15.14s-29.15,100.33-29.6,96.85,0,113.58,0,113.58Z"/><path class="cls-8" d="M362.63,406.17c-.14,0-.26-26.07-.26-58.23s.12-58.23.26-58.23.26,26.06.26,58.23S362.77,406.17,362.63,406.17Z"/><polygon class="cls-2" points="309.36 212.59 313.42 215.67 310.57 234.38 358.53 284.62 314.97 227.42 318.68 212.59 309.36 212.59"/><path class="cls-3" d="M365.22,347.21l-73.61-21.58-2.44-55.91,20.19-73.66s-48.12,24-51.4,39.29-11.17,52.42-12,79.26c-.75,24-.86,40.05,4.62,47.71,15.7,21.94,119.14,25.86,160.46,0"/><path class="cls-8" d="M359.46,285.84a2.27,2.27,0,0,1-.24-.27c-.17-.21-.39-.48-.66-.83l-2.5-3.2c-2.18-2.82-5.29-6.86-9.12-11.84-7.68-10-18.25-23.88-29.93-39.17-.75-1-1.5-2-2.25-2.95l-.08-.1,0-.12c1.28-5.13,2.53-10.09,3.72-14.83l.24.31h-9.56v-.24c0-6.05,0-11.61,0-16.53V196l.08-.05,14.47-11,4-3,1-.76a2.49,2.49,0,0,1,.37-.25,2.85,2.85,0,0,1-.33.29l-1,.81-3.91,3.07-14.36,11.13.08-.16c0,4.92,0,10.48,0,16.53l-.24-.24H319l-.08.31c-1.18,4.74-2.42,9.71-3.7,14.83l-.05-.22,2.26,3,29.8,39.26,9,11.94c1,1.4,1.85,2.49,2.42,3.26l.62.86A2,2,0,0,1,359.46,285.84Z"/><path class="cls-3" d="M392.27,191.71c-5.87-10.27-8.92-9.2-8.92-9.2l.31,3.66v7.69l-2.79,33-17.83,71.69.37,108h67.41l8.39-131.77L438.46,218Z"/><path class="cls-3" d="M438.46,218s17.45,12.88,19,33.6c1.23,16.83,4,62.92,4.55,73,.8,15.62-11.37,52.21-43.05,41.84-19-6.21-89.18-30.07-89.18-30.07l4.67-29.8,83.3,5L419.37,242Z"/><path class="cls-12" d="M333.46,309.92s-23.58-2.55-29-1.23c-5.25,1.26-12.72,7.68-12.72,7.68l.11,9.32,37.93,10.6Z"/><path class="cls-8" d="M363.05,287.77a1.46,1.46,0,0,1,.11-.32c.09-.24.2-.54.35-.92.33-.84.81-2,1.41-3.53l5.28-12.92c2.25-5.46,4.92-11.94,7.88-19.14.75-1.79,1.49-3.66,2.42-5.49s1.94-3.65,3-5.48a121,121,0,0,1,7.48-10.8c1.36-1.76,2.73-3.47,4.15-5.1l0,.26-2.94-7.47-.1-.25.25-.08,12.29-4.18-.12.34c-5.71-9.51-10.52-17.56-13.94-23.26-1.68-2.82-3.12-5.07-4.65-6a6,6,0,0,0-1.86-.75,6.37,6.37,0,0,1-.69-.17,5.79,5.79,0,0,1,.7.09,5.87,5.87,0,0,1,1.93.7,8.53,8.53,0,0,1,2.36,2.29,40.71,40.71,0,0,1,2.45,3.69c3.45,5.68,8.33,13.69,14.1,23.17l.15.25-.28.1L392.49,217l.15-.33q1.44,3.65,2.95,7.46l.06.15-.11.12c-1.4,1.62-2.77,3.33-4.12,5.07A121.86,121.86,0,0,0,384,240.24c-1.07,1.81-2.12,3.61-3,5.43s-1.66,3.66-2.41,5.46c-3,7.18-5.71,13.65-8,19.09s-4.14,9.79-5.43,12.86c-.64,1.49-1.15,2.66-1.5,3.49-.17.37-.3.67-.41.9A1.62,1.62,0,0,1,363.05,287.77Z"/><path class="cls-8" d="M448,360.57a2.28,2.28,0,0,1-.29.3l-.9.88a26.61,26.61,0,0,1-3.83,2.9,25.87,25.87,0,0,1-7,2.94,28.4,28.4,0,0,1-10,.64,31.62,31.62,0,0,1-5.75-1.22c-2-.62-3.92-1.39-6-2.12-4.11-1.49-8.53-3.05-13.17-4.68-9.3-3.25-19.55-6.74-30.35-10.28-21.6-7.1-41.3-13.08-55.58-17.34l-16.92-5-4.6-1.36-1.19-.37a2,2,0,0,1-.4-.14l.42.09,1.2.32,4.63,1.27c4,1.12,9.81,2.77,17,4.85,14.3,4.17,34,10.1,55.63,17.2,10.81,3.54,21.06,7,30.35,10.32,4.64,1.64,9,3.21,13.16,4.73,2.06.73,4,1.51,6,2.14a32.81,32.81,0,0,0,5.67,1.23,28.39,28.39,0,0,0,9.92-.55,26.65,26.65,0,0,0,7-2.83,29.25,29.25,0,0,0,3.86-2.81l.93-.83A1.63,1.63,0,0,1,448,360.57Z"/><path class="cls-8" d="M291.81,325.86c0,.11-1.33-.18-3.44-.1a16.18,16.18,0,0,0-3.64.6,16.93,16.93,0,0,0-4.1,1.87,19.27,19.27,0,0,0-5.71,5.86c-1.11,1.8-1.6,3-1.69,3a3.65,3.65,0,0,1,.28-.89,15.9,15.9,0,0,1,1.1-2.3,17.84,17.84,0,0,1,5.74-6.1,16.18,16.18,0,0,1,4.25-1.9,14.7,14.7,0,0,1,3.76-.5,12.4,12.4,0,0,1,2.54.22A3.16,3.16,0,0,1,291.81,325.86Z"/><path class="cls-8" d="M268.62,318.55s0-.1.09-.26a2.65,2.65,0,0,1,.46-.66,4.72,4.72,0,0,1,2.62-1.29,13.29,13.29,0,0,1,4.32,0,25.09,25.09,0,0,1,5.13,1.24,22.39,22.39,0,0,1,8.13,5,17,17,0,0,1,1.89,2.21,4.38,4.38,0,0,1,.55.91c-.09.06-.91-1.22-2.69-2.85a24,24,0,0,0-8.06-4.76,26.26,26.26,0,0,0-5-1.26,14,14,0,0,0-4.19-.12,4.78,4.78,0,0,0-2.54,1.08C268.83,318.23,268.66,318.58,268.62,318.55Z"/><path class="cls-8" d="M296.1,254.34a8.12,8.12,0,0,1-.34-1.52c-.15-.47-.36-1-.59-1.71s-.63-1.37-1.09-2.14a31.49,31.49,0,0,0-3.75-5,40.13,40.13,0,0,0-5.75-5A34.62,34.62,0,0,0,272,233.15a26,26,0,0,0-4.19-.53,8.59,8.59,0,0,1-1.55-.13,9.56,9.56,0,0,1,1.56-.07,21.92,21.92,0,0,1,4.25.37,33.09,33.09,0,0,1,12.8,5.71,38.43,38.43,0,0,1,5.8,5.16,28.35,28.35,0,0,1,3.72,5.13c.45.79.74,1.56,1,2.21s.4,1.29.52,1.78A10.55,10.55,0,0,1,296.1,254.34Z"/><path class="cls-8" d="M435.85,339.83a1.65,1.65,0,0,1,0-.36l0-1c0-.92-.07-2.27-.2-4a56,56,0,0,0-3-14.41,20.25,20.25,0,0,0-2-4.41,8.61,8.61,0,0,0-3.9-3.3c-3.35-1.45-7.38-1.26-11.48-1.49l-26.84-1.13c-22.18-1-41.91-1.79-54.31-2.46l.17-.13c-.75,4.55-1.35,8.17-1.76,10.67-.21,1.21-.37,2.16-.49,2.83-.05.3-.1.54-.13.73a1.6,1.6,0,0,1-.06.24,1.18,1.18,0,0,1,0-.25l.1-.73c.09-.68.23-1.62.4-2.84.38-2.51.92-6.13,1.61-10.7l0-.14h.15l54.31,2.25,26.84,1.17c2.06.11,4.07.15,6,.31a17.93,17.93,0,0,1,5.6,1.26,9.07,9.07,0,0,1,4.06,3.48,20.78,20.78,0,0,1,2,4.5,54,54,0,0,1,2.81,14.52c.11,1.75.11,3.11.1,4,0,.44,0,.78,0,1.05S435.85,339.83,435.85,339.83Z"/><path class="cls-8" d="M420,274.61c.14,0,.26,8.07.26,18s-.12,18-.26,18-.26-8.07-.26-18S419.82,274.61,420,274.61Z"/><path class="cls-8" d="M258.54,233.55s-.06.22-.2.66-.39,1.08-.6,1.95c-.49,1.73-1.11,4.32-1.8,7.69-1.39,6.74-3.1,16.6-5,28.94-.95,6.17-2,13-3,20.31-.51,3.66-.83,7.49-1.09,11.44s-.47,8-.63,12.25c-.3,8.4-.48,17.29-.24,26.54.08,2.31.16,4.65.35,7,.06,1.19.26,2.34.4,3.52a29.43,29.43,0,0,0,.85,3.45,19.5,19.5,0,0,0,3.32,6.33,14.2,14.2,0,0,0,5.68,4.38l0,0h0a86.94,86.94,0,0,0,14.83,5.66c5.17,1.55,10.51,2.8,15.93,3.92a220.16,220.16,0,0,0,35.8,4.36,169.12,169.12,0,0,0,17.09-.45c5.57-.38,11-1,16.25-1.75A171,171,0,0,0,385.68,373a149.52,149.52,0,0,0,23.58-10.12l0,.32-32.35-11.45-8.71-3.11-2.25-.82c-.51-.18-.76-.29-.76-.29l.77.25,2.27.77,8.74,3,32.4,11.3.39.13-.36.19a148.9,148.9,0,0,1-23.61,10.21,171.68,171.68,0,0,1-29.23,6.85c-5.26.78-10.7,1.37-16.28,1.77a170.08,170.08,0,0,1-17.14.46,220,220,0,0,1-35.89-4.36c-5.44-1.12-10.79-2.37-16-3.93a86.82,86.82,0,0,1-14.92-5.71l0,0a14.81,14.81,0,0,1-5.92-4.55,20,20,0,0,1-3.39-6.5,28.71,28.71,0,0,1-.87-3.52c-.15-1.19-.34-2.38-.4-3.56-.19-2.36-.27-4.7-.34-7-.23-9.27,0-18.16.28-26.57q.24-6.31.65-12.26c.27-4,.6-7.79,1.12-11.47,1-7.34,2.06-14.13,3-20.3,2-12.34,3.74-22.2,5.19-28.93.72-3.36,1.36-5.95,1.88-7.67.22-.88.5-1.51.64-1.95S258.54,233.55,258.54,233.55Z"/><path class="cls-2" d="M291.7,319c12.31-13.63,11.77-37.86,4.7-55.06-.65,18.63-2.85,35.15-4.53,53.25"/><path class="cls-8" d="M296.43,267.38a3.06,3.06,0,0,1,0,.6c0,.44-.07,1-.12,1.7-.12,1.54-.28,3.66-.49,6.25-.44,5.33-1,12.59-1.69,20.61l-1.62,20.61c-.19,2.59-.35,4.71-.47,6.25l-.15,1.7a4,4,0,0,1-.08.59,2.15,2.15,0,0,1,0-.6c0-.44,0-1,0-1.7.05-1.48.16-3.62.3-6.26.31-5.29.81-12.58,1.47-20.64s1.32-15.33,1.85-20.6l.65-6.23c.09-.69.16-1.25.21-1.69A2.2,2.2,0,0,1,296.43,267.38Z"/><path class="cls-8" d="M326.77,242.76a105.15,105.15,0,0,1,.26,10.56,105.27,105.27,0,0,1-.26,10.57c-.14,0-.26-4.73-.26-10.57S326.63,242.76,326.77,242.76Z"/><path class="cls-2" d="M318.75,277.87a10.85,10.85,0,0,0,2.27,5.6c1.16,1.5,3.51,3,5.4,2.87a8.24,8.24,0,0,0,7.27-3.65c2.3-3.67,2.87-11.3,1-15.81-1.27-3.1-4.12-6-7.47-6.06-4.4-.11-7.16,3.07-8.1,6.29"/><path class="cls-8" d="M319.14,267.11A6.82,6.82,0,0,1,320,265a8.87,8.87,0,0,1,1.66-2.16,7.68,7.68,0,0,1,5.2-2.16,6.29,6.29,0,0,1,2.29.3,9,9,0,0,1,4.08,2.93,11.79,11.79,0,0,1,2.41,5,21.86,21.86,0,0,1,.44,5.92c-.2,3.14-.82,6.25-2.55,8.63a7.82,7.82,0,0,1-3.32,2.51,9.08,9.08,0,0,1-3.76.63h0a5.64,5.64,0,0,1-2.69-.67,9,9,0,0,1-2-1.41,10.16,10.16,0,0,1-2.2-3.29,9.22,9.22,0,0,1-.7-2.43,5.1,5.1,0,0,1-.06-.66c0-.15,0-.22,0-.22a14.14,14.14,0,0,0,1,3.21,10.15,10.15,0,0,0,2.22,3.13,8.21,8.21,0,0,0,2,1.32,5.3,5.3,0,0,0,2.5.59h0a8,8,0,0,0,6.65-3c1.61-2.23,2.23-5.29,2.42-8.35.22-4-.45-7.95-2.7-10.6a8.58,8.58,0,0,0-3.84-2.82,5.75,5.75,0,0,0-2.15-.31,7.44,7.44,0,0,0-5,2,9.52,9.52,0,0,0-1.67,2.05A20,20,0,0,0,319.14,267.11Z"/><path class="cls-2" d="M316.41,278.06a10.85,10.85,0,0,0,2.27,5.61c1.15,1.5,3.51,3,5.4,2.86a8.23,8.23,0,0,0,7.27-3.64c2.3-3.67,2.87-11.3,1-15.81-1.27-3.1-4.12-6-7.47-6.06-4.4-.11-7.16,3.07-8.1,6.29"/><path class="cls-8" d="M316.8,267.31a6.82,6.82,0,0,1,.81-2.16,9.06,9.06,0,0,1,1.65-2.16,7.62,7.62,0,0,1,3.12-1.83,7.81,7.81,0,0,1,2.09-.33,6.11,6.11,0,0,1,2.29.3,9,9,0,0,1,4.08,2.93,11.66,11.66,0,0,1,2.4,5,21.47,21.47,0,0,1,.45,5.92c-.2,3.13-.82,6.25-2.55,8.63a7.72,7.72,0,0,1-3.32,2.5,9.1,9.1,0,0,1-3.76.64h0a5.61,5.61,0,0,1-2.69-.67,9,9,0,0,1-2-1.41,10.1,10.1,0,0,1-2.2-3.29,9.22,9.22,0,0,1-.7-2.43,5.25,5.25,0,0,1-.06-.66.68.68,0,0,1,0-.23,14,14,0,0,0,1,3.22,10,10,0,0,0,2.22,3.13,8.21,8.21,0,0,0,2,1.32,5.3,5.3,0,0,0,2.5.59h0a8,8,0,0,0,6.64-3c1.62-2.23,2.24-5.29,2.43-8.36.22-3.95-.45-7.94-2.7-10.59a8.56,8.56,0,0,0-3.85-2.82,5.7,5.7,0,0,0-2.14-.31,7.44,7.44,0,0,0-5,2,9.52,9.52,0,0,0-1.67,2.05A17.59,17.59,0,0,0,316.8,267.31Z"/><path class="cls-2" d="M320.66,266.18a5.15,5.15,0,0,0-5.37,3.1,8.85,8.85,0,0,0,0,6.52,8,8,0,0,0,1.67,2.94,4.32,4.32,0,0,0,3,1.45,5.19,5.19,0,0,0,4.13-2.44,9.32,9.32,0,0,0,1.41-7.67c-.46-1.73-1.74-3.51-3.53-3.55"/><path class="cls-8" d="M322,266.53s.14,0,.4,0a2.89,2.89,0,0,1,1.09.37,5.36,5.36,0,0,1,2.28,3.44,9.42,9.42,0,0,1-.61,6.12,7.92,7.92,0,0,1-2.25,2.95,4.33,4.33,0,0,1-3.86.92,5.33,5.33,0,0,1-3.08-2.52,11.24,11.24,0,0,1-1.28-3.45,7.69,7.69,0,0,1,1-6,5.38,5.38,0,0,1,3.48-2.22,3.61,3.61,0,0,1,1.15,0,1.59,1.59,0,0,1,.38.1,7.5,7.5,0,0,0-1.49.1,5.26,5.26,0,0,0-3.22,2.23,7.36,7.36,0,0,0-.83,5.73,10.77,10.77,0,0,0,1.25,3.29,4.89,4.89,0,0,0,2.78,2.28,3.85,3.85,0,0,0,3.41-.82,7.58,7.58,0,0,0,2.12-2.75,9.14,9.14,0,0,0,.69-5.83,5.27,5.27,0,0,0-2-3.36A4,4,0,0,0,322,266.53Z"/><path class="cls-8" d="M325.7,282.62c-.08,0-.19-.31-.53-.71a3.65,3.65,0,0,0-1.71-1.1,9,9,0,0,0-2.1-.32c-.55-.05-.91-.09-.91-.16s.34-.16.91-.21a6,6,0,0,1,2.26.19,3.36,3.36,0,0,1,1.85,1.38C325.78,282.22,325.76,282.62,325.7,282.62Z"/><path class="cls-8" d="M326.49,264.82c0,.05-.16.36-.62.73a5.06,5.06,0,0,1-2.11.92,4.82,4.82,0,0,1-2.3-.13c-.56-.18-.86-.4-.83-.46a7.46,7.46,0,0,0,5.86-1.06Z"/><path class="cls-8" d="M395.2,193.19a1.25,1.25,0,0,1,.33.12c.21.1.51.24.89.46a18.36,18.36,0,0,1,3,2.15,21.35,21.35,0,0,1,6.44,10.18A65.11,65.11,0,0,1,408.3,218c.18,1.54.27,2.78.33,3.65a6.12,6.12,0,0,1,0,1.35,7.62,7.62,0,0,1-.22-1.33c-.13-1-.3-2.18-.49-3.63a76.5,76.5,0,0,0-2.59-11.75,22.1,22.1,0,0,0-6.18-10.06A34.5,34.5,0,0,0,395.2,193.19Z"/><path class="cls-8" d="M382.74,303.27c2.9-.11,5.22-3,8.12-2.85a4,4,0,1,1-.68,8c-3.05-.35-4.83-3.92-7.81-4.61"/><path class="cls-8" d="M407.32,305.74a17.2,17.2,0,0,1-2.71-.23l.16-1c3.58.58,6.59,0,8.94-1.74,3-2.18,4.87-6.07,5.67-11.57l0-.21c.33-2.18.78-44.95.78-53.07,0-12.68-11.13-14.41-11.61-14.48s-10.57-1.77-15.94,12.08C387,250,378,278,377.44,281.27c-.07.4-.19.9-.31,1.48-.94,4.19-2.88,12.92,2.94,17.95,6.49,5.6,11.61,3.44,11.82,3.34l.41.91c-.24.11-5.88,2.55-12.88-3.49-6.28-5.42-4.25-14.55-3.27-18.93.13-.56.23-1,.3-1.44.6-3.3,9.62-31.37,15.26-45.92s16.92-12.73,17-12.71,12.44,1.91,12.44,15.47c0,6.69-.44,50.91-.79,53.22l0,.21c-.84,5.77-2.88,9.89-6.07,12.22A11.45,11.45,0,0,1,407.32,305.74Z"/><path class="cls-8" d="M420.69,246.11a18.59,18.59,0,0,0-2.08-5,16.87,16.87,0,0,0-3.95-4.28,17.2,17.2,0,0,0-6.43-3,18.78,18.78,0,0,0-12.65,1.66,22.62,22.62,0,0,0-4.41,3.15,1.32,1.32,0,0,1,.23-.31,9.12,9.12,0,0,1,.75-.8,15,15,0,0,1,3.25-2.37,18.33,18.33,0,0,1,5.64-2,17.93,17.93,0,0,1,7.31.15,17,17,0,0,1,6.6,3.16,16.45,16.45,0,0,1,4,4.47,13.3,13.3,0,0,1,1.55,3.72,9.64,9.64,0,0,1,.2,1.07C420.7,246,420.71,246.11,420.69,246.11Z"/><path class="cls-8" d="M446.16,326.06a35,35,0,0,0-1.38-4.27,18.61,18.61,0,0,0-6.78-8.14,14.7,14.7,0,0,0-5.5-2,47.32,47.32,0,0,0-4.85-.5l-3.29-.23a4.63,4.63,0,0,1-1.2-.17,6.33,6.33,0,0,1,1.21,0l3.3.06a43.5,43.5,0,0,1,4.9.39,14.71,14.71,0,0,1,5.71,2,18.22,18.22,0,0,1,6.85,8.44,16.45,16.45,0,0,1,.91,3.2A4.57,4.57,0,0,1,446.16,326.06Z"/><path class="cls-12" d="M395.71,309.37s9.84-14.9,12.35-16.85,24-11.64,26.49-10.08,1,4.94,1,4.94,9.08-3.19,10.05-1.93a4.48,4.48,0,0,1,0,5.12s5-.77,5,.77a6.36,6.36,0,0,1-2.9,5.22c-2.32,1.74-17.41,11.79-18.62,14.56l-4.89-.29Z"/><path class="cls-13" d="M424,305.11a3.83,3.83,0,0,1,.45-.94,18.18,18.18,0,0,1,1.62-2.33,27,27,0,0,1,7.13-6,53.2,53.2,0,0,1,8.44-4c1.11-.42,2-.74,2.65-.95a4.36,4.36,0,0,1,1-.28,4.3,4.3,0,0,1-.93.47l-2.59,1.1a70.06,70.06,0,0,0-8.3,4.07,29.81,29.81,0,0,0-7.12,5.8C424.8,303.86,424.1,305.16,424,305.11Z"/><path class="cls-13" d="M411.54,304.87a5.24,5.24,0,0,1,.48-1.1c.34-.69.83-1.68,1.51-2.88a27.53,27.53,0,0,1,2.71-4,12.44,12.44,0,0,1,2.06-2c.83-.56,1.7-1.09,2.61-1.62a71.31,71.31,0,0,1,9.6-4.79,26.79,26.79,0,0,1,3.09-1,4.85,4.85,0,0,1,1.17-.21c0,.08-1.63.47-4.12,1.58a92.71,92.71,0,0,0-9.48,4.9c-.9.53-1.77,1.05-2.58,1.59a12.49,12.49,0,0,0-2,1.93,29.15,29.15,0,0,0-2.76,3.89l-1.66,2.79A5.81,5.81,0,0,1,411.54,304.87Z"/></g><g id="Desk"><path class="cls-8" d="M673.92,406.76c0,.14-150.87.26-336.94.26S0,406.9,0,406.76s150.84-.26,337-.26S673.92,406.61,673.92,406.76Z"/></g></g></svg>